<?xml version="1.0" encoding="UTF-8"?><svg id="Layer_2" xmlns="http://www.w3.org/2000/svg" width="323.65" height="404.54" viewBox="0 0 323.65 404.54"><g id="Layer_1-2"><g id="freepik--Charts--inject-73"><polygon points="295.93 233.13 295.92 236.54 239.78 204.12 239.79 200.71 295.93 233.13" fill="#94e03e"/><polygon points="275.93 227.01 275.92 230.42 239.76 209.54 239.77 206.13 275.93 227.01" fill="#94e03e"/><path d="M259.53,179.7c.59.34,1.11.79,1.53,1.32,1.78,2.13,2.22,5,2.46,7.49.34,3.45.69,6.9,1,10.35.13,1.81.46,3.6,1,5.34.58,1.88,1.67,3.57,3.15,4.86.17.13.35.25.54.36,1.06.71,2.43.71,3.49,0,.99-.9,1.78-2,2.3-3.23.65-1.44,1.72-2.66,3.07-3.49,1.4-.61,3.01-.47,4.29.36.26.16.52.33.76.52,2.91,2.23,4.63,6.61,6,10.41s3.12,8.21,6.05,10.34c.19.14.39.28.6.4,1.82,1.1,4.13.91,5.75-.47,1.61-1.23,2.91-3,4.92-3.54,1.07-.21,2.17-.05,3.14.44v16.6l-69.76-40.25.08-27.59c1.31,2.26,2.24,4.73,2.74,7.29.6,3.32.46,6.93,2.7,9.86.54.71,1.22,1.31,2,1.76.84.53,1.85.73,2.83.56,1.38-.36,2.25-1.65,2.82-3.17.77-2,1.12-4.5,2.34-6,1.08-1.19,2.87-1.42,4.2-.52Z" fill="#94e03e"/><path d="M259.53,179.7c.59.34,1.11.79,1.53,1.32,1.78,2.13,2.22,5,2.46,7.49.34,3.45.69,6.9,1,10.35.13,1.81.46,3.6,1,5.34.58,1.88,1.67,3.57,3.15,4.86.17.13.35.25.54.36,1.06.71,2.43.71,3.49,0,.99-.9,1.78-2,2.3-3.23.65-1.44,1.72-2.66,3.07-3.49,1.4-.61,3.01-.47,4.29.36.26.16.52.33.76.52,2.91,2.23,4.63,6.61,6,10.41s3.12,8.21,6.05,10.34c.19.14.39.28.6.4,1.82,1.1,4.13.91,5.75-.47,1.61-1.23,2.91-3,4.92-3.54,1.07-.21,2.17-.05,3.14.44v16.6l-69.76-40.25.08-27.59c1.31,2.26,2.24,4.73,2.74,7.29.6,3.32.46,6.93,2.7,9.86.54.71,1.22,1.31,2,1.76.84.53,1.85.73,2.83.56,1.38-.36,2.25-1.65,2.82-3.17.77-2,1.12-4.5,2.34-6,1.08-1.19,2.87-1.42,4.2-.52Z" fill="#fff" isolation="isolate" opacity=".4"/><path d="M320.62,92.54l-78.65-45.41c-.6-.42-1.37-.51-2.06-.26h-.06l-.12.07-3.18,1.83h-.12c-.58.46-.89,1.19-.83,1.93l-.06,21.2c.11,2.17,1.26,4.16,3.08,5.34l78.65,45.53c.64.47,1.49.55,2.21.21h0l3.24-1.87h0c.62-.47.95-1.23.87-2l.06-21.2c-.1-2.17-1.22-4.16-3.03-5.37Z" fill="#94e03e"/><path d="M320.62,92.54l-78.65-45.41c-.6-.42-1.37-.51-2.06-.26h-.06l-.12.07-3.18,1.83c.71-.31,1.52-.22,2.15.23l78.65,45.41c1.28.83,2.24,2.07,2.73,3.51l3.28-1.87c-.49-1.45-1.46-2.68-2.74-3.51Z" fill="#fff" isolation="isolate" opacity=".3"/><path d="M320.08,97.94c.22.58.34,1.2.35,1.83l-.06,21.21c.09.78-.25,1.54-.89,2h0l3.24-1.87h0c.62-.47.95-1.23.87-2l.06-21.2c-.01-.62-.13-1.24-.35-1.82l-3.22,1.85Z" isolation="isolate" opacity=".2"/><path d="M257.58,68.18c1.71,3,1.85,6.15.43,7.51l-5.62-3.24-.39-3.4c-.03-.2-.14-.37-.3-.49-.16-.09-.29,0-.31.13l-.82,5-1.06-8c-.03-.2-.15-.37-.31-.48-.07-.07-.19-.06-.25.01-.03.03-.04.07-.05.12l-.77,5.49-.77-4.12c-.04-.18-.15-.34-.3-.45-.15-.08-.27,0-.3.09l-.7,2.43-4.59-2.65c-1.41-3-1.25-6,.48-7,1.12-.51,2.43-.37,3.43.35,1.43.89,2.6,2.13,3.41,3.6l1,1.68,1-.56c1.12-.5,2.42-.37,3.42.35,1.41.9,2.57,2.15,3.37,3.63ZM251.67,71.18l-.8,4.92c0,.15-.15.2-.3.11-.17-.1-.28-.27-.31-.47l-1-7.88-.71,5.08c0,.16-.15.21-.31.14-.16-.1-.27-.27-.3-.46l-.87-4.63-.43,1.53c0,.13-.16.17-.3.09l-4.28-2.47.88,1.53,6.82,11.81,6.86-3.92.88-.5-5.33-3.08c-.17-.11-.28-.28-.31-.48l-.19-1.32Z" fill="#94e03e"/><path d="M249.2,65.22c.16.11.28.28.31.48l1.06,8,.82-5c0-.16.15-.22.31-.13.16.12.27.29.3.49l.39,3.4,5.62,3.24,3.19,1.84c.18.12.3.32.31.54,0,.19-.14.27-.32.17l-3.73-2.15-5.33-3.08c-.17-.11-.28-.28-.31-.48l-.15-1.32-.8,4.92c0,.15-.15.2-.3.11-.17-.1-.28-.27-.31-.47l-1-7.88-.71,5.08c0,.1-.08.18-.18.18-.04,0-.08-.01-.11-.04-.17-.1-.29-.27-.32-.46l-.87-4.63-.43,1.53c0,.13-.16.17-.3.09l-4.28-2.47-3.73-2.16c-.18-.11-.3-.31-.31-.52,0-.2.14-.28.31-.19l3.18,1.84,4.59,2.65.7-2.43c0-.13.15-.17.28-.1.16.1.28.27.32.46l.77,4.12.77-5.49c.01-.1.1-.17.2-.16.02,0,.04,0,.06.02Z" fill="#fff"/><path d="M257.58,68.18c1.71,3,1.85,6.15.43,7.51l-5.62-3.24-.39-3.4c-.03-.2-.14-.37-.3-.49-.16-.09-.29,0-.31.13l-.82,5-1.06-8c-.03-.2-.15-.37-.31-.48-.07-.07-.19-.06-.25.01-.03.03-.04.07-.05.12l-.77,5.49-.77-4.12c-.04-.18-.15-.34-.3-.45-.15-.08-.27,0-.3.09l-.7,2.43-4.59-2.65c-1.41-3-1.25-6,.48-7,1.12-.51,2.43-.37,3.43.35,1.43.89,2.6,2.13,3.41,3.6l1,1.68,1-.56c1.12-.5,2.42-.37,3.42.35,1.41.9,2.57,2.15,3.37,3.63ZM251.67,71.18l-.8,4.92c0,.15-.15.2-.3.11-.17-.1-.28-.27-.31-.47l-1-7.88-.71,5.08c0,.16-.15.21-.31.14-.16-.1-.27-.27-.3-.46l-.87-4.63-.43,1.53c0,.13-.16.17-.3.09l-4.28-2.47.88,1.53,6.82,11.81,6.86-3.92.88-.5-5.33-3.08c-.17-.11-.28-.28-.31-.48l-.19-1.32Z" fill="#fff" isolation="isolate" opacity=".4"/><polygon points="304.42 107.34 304.41 110.84 263.64 87.3 263.65 83.8 304.42 107.34" fill="#fff"/><polygon points="312.27 105 312.26 108.51 263.66 80.45 263.67 76.94 312.27 105" fill="#fff"/><polygon points="280.39 79.72 280.38 83.22 263.68 73.58 263.69 70.08 280.39 79.72" fill="#fff"/><path d="M320.62,133.88l-78.65-45.41c-.6-.42-1.37-.51-2.06-.26h-.06l-.12.07-3.18,1.83h-.12c-.58.46-.89,1.19-.83,1.93l-.06,21.2c.11,2.17,1.26,4.16,3.08,5.34l78.65,45.41c.64.47,1.49.55,2.21.21h0l3.24-1.87h0c.62-.47.95-1.23.87-2l.06-21.21c-.14-2.12-1.26-4.06-3.03-5.24Z" fill="#94e03e"/><path d="M320.62,133.88l-78.65-45.41c-.6-.42-1.37-.51-2.06-.26h-.06l-.12.07-3.18,1.83c.71-.31,1.52-.22,2.15.23l78.65,45.43c1.28.83,2.24,2.07,2.73,3.51l3.28-1.87c-.49-1.45-1.45-2.7-2.74-3.53Z" fill="#fff" isolation="isolate" opacity=".3"/><path d="M320.08,139.28c.22.58.34,1.2.35,1.83l-.06,21.21c.09.78-.25,1.54-.89,2h0l3.24-1.87h0c.62-.47.95-1.23.87-2l.06-21.21c-.01-.62-.13-1.23-.35-1.81l-3.22,1.85Z" isolation="isolate" opacity=".2"/><polygon points="308.52 150.96 308.51 154.46 286.25 141.61 286.26 138.1 308.52 150.96" fill="#fff"/><polygon points="311.33 145.7 311.32 149.21 286.26 134.74 286.27 131.24 311.33 145.7" fill="#fff"/><polygon points="297.43 130.81 297.42 134.31 286.28 127.88 286.29 124.38 297.43 130.81" fill="#fff"/><path d="M251.94,110.56c.73.47,1.19,1.27,1.24,2.14v2.37c0,.78-.57,1.1-1.25.71l-2.06-1.19c-.73-.48-1.18-1.27-1.23-2.14v-2.37c0-.79.56-1.1,1.24-.71l2.06,1.19Z" fill="#fff"/><path d="M250.94,101.5l.3.19v2.85c-.1-.07-.2-.14-.31-.2-3.95-2.28-7.17-.45-7.19,4.1.05,2.03.55,4.02,1.46,5.83l-2.12.27c-1.13-2.35-1.75-4.92-1.81-7.53.01-6.11,4.35-8.58,9.67-5.51Z" fill="#fff" isolation="isolate" opacity=".4"/><path d="M251.24,101.69c5.18,3.18,9.33,10.46,9.31,16.45s-4.36,8.58-9.67,5.51c-3.45-2.19-6.16-5.37-7.8-9.11l2.12-.27c1.22,2.68,3.2,4.95,5.68,6.54,4,2.28,7.18.44,7.19-4.1-.27-4.9-2.79-9.39-6.83-12.17v-2.85Z" fill="#fff"/><path d="M272.38,113.88l.31.19v2.85c-.1-.07-.2-.14-.31-.2-3.95-2.28-7.17-.45-7.18,4.1.05,2.03.54,4.02,1.45,5.83l-2.11.27c-1.14-2.35-1.76-4.92-1.82-7.53,0-6.11,4.35-8.62,9.66-5.51Z" fill="#fff" isolation="isolate" opacity=".4"/><path d="M273.39,122.94c.73.48,1.18,1.27,1.23,2.14v2.36c0,.79-.55,1.11-1.24.72l-2.06-1.19c-.73-.48-1.18-1.27-1.23-2.14v-2.37c0-.79.56-1.1,1.25-.71l2.05,1.19Z" fill="#fff"/><path d="M272.69,114.07c5.17,3.18,9.32,10.46,9.3,16.45s-4.35,8.58-9.67,5.51c-3.45-2.19-6.16-5.37-7.79-9.11l2.11-.27c1.23,2.68,3.2,4.95,5.69,6.54,3.95,2.28,7.17.44,7.19-4.1-.27-4.9-2.8-9.39-6.84-12.17v-2.85Z" fill="#fff"/><path d="M245.26,135.06c1.03.66,1.67,1.78,1.72,3v3.29c0,1.09-.77,1.53-1.73,1l-2.86-1.65c-1.02-.67-1.65-1.78-1.71-3v-3.29c0-1.09.78-1.53,1.72-1l2.86,1.65Z" fill="#94e03e"/><path d="M245.24,144.32c1.02.66,1.66,1.78,1.71,3v3.29c0,1.09-.77,1.53-1.72,1l-2.86-1.65c-1.02-.66-1.66-1.78-1.71-3v-3.3c0-1.09.77-1.53,1.72-1l2.86,1.66Z" fill="#94e03e"/><path d="M245.21,153.59c1.02.66,1.66,1.78,1.72,3v3.29c0,1.09-.78,1.53-1.73,1l-2.86-1.65c-1.02-.66-1.66-1.78-1.71-3v-3.29c0-1.08.77-1.52,1.72-1l2.86,1.65Z" fill="#94e03e"/><polygon points="293.34 183.36 293.33 186.63 249.87 161.53 249.88 158.26 293.34 183.36" fill="#94e03e"/><polygon points="310.67 184.08 310.66 187.36 249.89 152.28 249.9 149 310.67 184.08" fill="#94e03e"/><polygon points="302.65 170.18 302.64 173.45 249.92 143.02 249.93 139.74 302.65 170.18" fill="#94e03e"/></g><g id="freepik--Device--inject-73"><path d="M143.12,25.28c0-8.43-3-14.35-7.81-17.14h0l-10.79-6.37-.15-.08c-.43-.25-.88-.47-1.34-.66-.09-.03-.17-.06-.26-.09l-.46-.16c-.23-.08-.45-.18-.69-.25s-.52-.12-.77-.18l-.48-.1c-.08-.03-.17-.05-.25-.06-.54-.09-1.08-.16-1.62-.19h-1.77l-.44.05-.8.08c-.25,0-.5,0-.75.07l-.67.15c-.36.06-.72.14-1.09.23-.2,0-.39.07-.59.13-.45.12-.9.26-1.36.41h-.14c-.55.18-1.09.39-1.65.62l-.66.3-.63.29c-.81.38-1.62.79-2.45,1.27L26.62,49.15c-.86.5-1.71,1.04-2.55,1.62l-.8.58c-.57.41-1.13.83-1.69,1.27l-.91.76c-.51.43-1,.87-1.51,1.32l-.9.84-.57.53c-.19.19-.38.41-.57.61-.6.61-1.2,1.24-1.78,1.89-.18.21-.38.4-.57.61l-.45.55c-.35.41-.69.84-1,1.26s-.46.55-.68.83-.35.48-.52.72-.5.66-.74,1l-.52.69c-.28.4-.54.81-.81,1.22l-.52.77-.21.32c-.48.75-.94,1.5-1.39,2.27l-.08.15-.26.46c-.31.54-.62,1.09-.91,1.64-.14.25-.26.51-.39.77l-.41.8c-.11.24-.24.47-.35.7-.31.63-.59,1.26-.87,1.9l-.15.33-.05.09c-.34.8-.67,1.6-1,2.4-.05.15-.1.3-.16.45s-.2.58-.31.87-.3.8-.43,1.21-.19.62-.29.94c-.1.32-.23.73-.33,1.09s-.15.46-.21.69c-.12.41-.2.82-.3,1.23s-.24.91-.34,1.36c0,.16-.08.32-.12.48-.07.33-.1.65-.16,1-.14.71-.27,1.42-.37,2.13,0,.2-.08.4-.1.59-.06.45-.09.89-.13,1.34s-.07.63-.09.94c-.08,1-.13,2-.12,2.95l.34,152.21c0,8.43,3,14.36,7.81,17.15l10.8,6.39c-.3-.19-.6-.39-.88-.61,4.92,3.43,12,3.31,19.89-1.25l78.86-45.56c14.76-8.52,26.7-29.19,26.65-46.17l-.35-152.2Z" fill="#94e03e"/><path d="M143.12,25.28c0-8.43-3-14.35-7.81-17.14h0l-10.79-6.37-.15-.08c-.43-.25-.88-.47-1.34-.66-.09-.03-.17-.06-.26-.09l-.46-.16c-.23-.08-.45-.18-.69-.25s-.52-.12-.77-.18l-.48-.1c-.08-.03-.17-.05-.25-.06-.54-.09-1.08-.16-1.62-.19h-1.77l-.44.05-.8.08c-.25,0-.5,0-.75.07l-.67.15c-.36.06-.72.14-1.09.23-.2,0-.39.07-.59.13-.45.12-.9.26-1.36.41h-.14c-.55.18-1.09.39-1.65.62l-.66.3-.63.29c-.81.38-1.62.79-2.45,1.27L26.62,49.15c-.86.5-1.71,1.04-2.55,1.62l-.8.58c-.57.41-1.13.83-1.69,1.27l-.91.76c-.51.43-1,.87-1.51,1.32l-.9.84-.57.53c-.19.19-.38.41-.57.61-.6.61-1.2,1.24-1.78,1.89-.18.21-.38.4-.57.61l-.45.55c-.35.41-.69.84-1,1.26s-.46.55-.68.83-.35.48-.52.72-.5.66-.74,1l-.52.69c-.28.4-.54.81-.81,1.22l-.52.77-.21.32c-.48.75-.94,1.5-1.39,2.27l-.08.15-.26.46c-.31.54-.62,1.09-.91,1.64-.14.25-.26.51-.39.77l-.41.8c-.11.24-.24.47-.35.7-.31.63-.59,1.26-.87,1.9l-.15.33-.05.09c-.34.8-.67,1.6-1,2.4-.05.15-.1.3-.16.45s-.2.58-.31.87-.3.8-.43,1.21-.19.62-.29.94c-.1.32-.23.73-.33,1.09s-.15.46-.21.69c-.12.41-.2.82-.3,1.23s-.24.91-.34,1.36c0,.16-.08.32-.12.48-.07.33-.1.65-.16,1-.14.71-.27,1.42-.37,2.13,0,.2-.08.4-.1.59-.06.45-.09.89-.13,1.34s-.07.63-.09.94c-.08,1-.13,2-.12,2.95l.34,152.21c0,8.43,3,14.36,7.81,17.15l10.8,6.39c-.3-.19-.6-.39-.88-.61,4.92,3.43,12,3.31,19.89-1.25l78.86-45.56c14.76-8.52,26.7-29.19,26.65-46.17l-.35-152.2Z" fill="#fff" isolation="isolate" opacity=".6"/><path d="M11.12,253.89l-.3-152.2L.02,95.3l.34,152.21c0,8.43,3,14.36,7.81,17.15l10.8,6.39c-4.84-2.79-7.82-8.72-7.85-17.16Z" isolation="isolate" opacity=".1"/><path d="M119.38,8.44c.75-.35,1.52-.65,2.31-.92h.14c.66-.22,1.31-.39,2-.54l1.09-.24c.48-.09.95-.16,1.42-.21l.8-.09c.57-.03,1.15-.03,1.72,0h.39c.67.04,1.34.12,2,.25l.48.11c.49.12.98.26,1.46.43l.46.15c.6.24,1.19.52,1.75.84l-10.88-6.45-.15-.08c-.43-.25-.88-.47-1.34-.66-.09-.03-.17-.06-.26-.09l-.46-.16c-.23-.08-.45-.18-.69-.25s-.52-.12-.77-.18l-.48-.1c-.08-.03-.17-.05-.25-.06-.54-.09-1.08-.16-1.62-.19h-1.77l-.44.05-.8.08c-.25,0-.5,0-.75.07l-.67.15c-.36.06-.72.14-1.09.23-.2,0-.39.07-.59.13-.45.12-.9.26-1.36.41h-.14c-.55.18-1.09.39-1.65.62l-.66.3-.63.29c-.81.38-1.62.79-2.45,1.27L26.62,49.15c-.86.5-1.71,1.04-2.55,1.62l-.8.59c-.57.4-1.13.82-1.69,1.26l-.91.76c-.51.43-1,.87-1.51,1.32l-.9.84-.57.53c-.19.19-.38.41-.57.61-.6.61-1.2,1.24-1.78,1.89-.18.21-.38.4-.57.61l-.45.55c-.35.41-.69.84-1,1.26s-.46.55-.68.83-.35.48-.52.72-.5.66-.74,1l-.52.69c-.28.4-.54.81-.81,1.22l-.52.77-.21.32c-.48.75-.94,1.5-1.39,2.27l-.08.15-.26.46c-.31.55-.62,1.09-.91,1.64-.14.25-.26.51-.39.77l-.41.8c-.11.24-.24.47-.35.7-.31.63-.59,1.26-.87,1.9l-.15.33-.05.09c-.34.8-.67,1.6-1,2.4-.05.15-.1.3-.16.45s-.2.58-.31.87-.3.8-.43,1.21-.19.62-.29.94c-.1.32-.23.73-.33,1.09s-.15.46-.21.69c-.12.41-.2.82-.3,1.23s-.24.91-.34,1.36c0,.16-.08.32-.12.48-.07.33-.1.65-.16,1-.14.71-.27,1.42-.37,2.13,0,.2-.08.4-.1.59-.06.45-.09.89-.13,1.34s-.07.63-.09.94c-.08,1-.13,2-.12,2.95l10.8,6.39c0-1,0-2,.11-2.95,0-.32.07-.63.1-.95.06-.64.14-1.28.23-1.92s.23-1.42.37-2.13c.09-.49.17-1,.28-1.46s.22-.91.34-1.37c.16-.63.32-1.27.5-1.91.11-.36.23-.73.34-1.1.23-.71.47-1.43.72-2.14.1-.29.2-.59.31-.88.37-1,.76-2,1.19-2.93l.15-.34c.39-.87.79-1.73,1.22-2.59.13-.27.27-.54.41-.8.41-.81.85-1.61,1.3-2.41l.26-.46c.54-.93,1.1-1.84,1.68-2.74l.52-.78c.43-.64.87-1.27,1.32-1.9l.75-1c.39-.52.8-1,1.2-1.54l1-1.27,1-1.15c.58-.65,1.18-1.28,1.78-1.89.38-.39.75-.77,1.14-1.14s.6-.57.9-.84c.5-.46,1-.9,1.51-1.32l.91-.76c.56-.44,1.12-.86,1.69-1.27.27-.19.53-.4.8-.58.84-.58,1.69-1.12,2.55-1.62L116.26,10.03c.83-.48,1.64-.89,2.45-1.27l.67-.32Z" fill="#fff" isolation="isolate" opacity=".3"/><path d="M24.57,253.85c0,3.31.73,5,1.1,5.52.11,0,.23,0,.34,0,.61,0,2.33-.18,5.21-1.84l78.88-45.54c10.65-6.15,20-22.26,19.92-34.49l-.08-39.1-105.5,61.57.13,53.88Z" fill="#94e03e"/><path d="M129.68,25.32c0-3.35-.76-5-1.12-5.52h-.76l-.44.07-.42.09c-.26.06-.63.16-.9.25h-.13c-.27.1-.63.24-1,.43l-.37.17c-.6.28-1.07.52-1.48.76l-78.88,45.54c-.49.29-1,.63-1.61,1l-.6.43c-.39.29-.78.58-1.16.88l-.54.44-.11.1c-.38.31-.74.63-1.1.95l-.67.63-.72.73-.13.13c-.46.46-.91.94-1.34,1.43l-.15.16-.64.72-.81,1c-.32.4-.64.8-.94,1.21l-.59.78c-.35.5-.7,1-1,1.51l-.42.62c-.48.75-.93,1.48-1.32,2.15l-.22.39c-.36.63-.7,1.27-1,1.91l-.32.63c-.34.68-.66,1.36-1,2-.06.13-.11.26-.18.4-.28.66-.57,1.38-.88,2.19l-.24.68c-.2.55-.38,1.1-.55,1.65-.09.28-.18.56-.26.83-.14.48-.26.95-.38,1.45l-.07.27-.18.72-.12.62-.08.44c-.1.51-.19,1-.26,1.52s-.12.88-.16,1.32l-.07.64c-.06.75-.08,1.37-.08,1.92l.21,93.85,105.5-61.57-.31-108.52Z" fill="#455a64"/><polygon points="24.43 195.51 24.44 199.99 129.94 138.42 129.92 133.94 24.43 195.51" fill="#fff"/><path d="M112.87,78.23l-10.05,5.81-10.78,6.23,10.78-6.23c3.62-8,3.12-16-1.5-18.6-2.58-1.47-6-1-9.32,1-3.89,2.42-7.09,5.79-9.3,9.8l-2.75,4.76-.47-6.08c0-.51-.42-.71-.93-.45-.49.32-.82.83-.92,1.4l-.86,5.61-1.58-.9c-2.58-1.47-6-1-9.33.95-3.89,2.41-7.09,5.79-9.29,9.8-4.6,8-5.05,16.46-1.39,20.27l-10.07,5.81c-.56.35-.9.95-.93,1.61,0,.59.42.83.93.54l11.71-6.79,3.61,2.06,18.69,10.64,2.13-3.69.09,1.15c0,.52.44.72.93.45.51-.34.85-.88.93-1.49l.37-4.13,14.11-24.44,3.59-6.21,11.66-6.73c.53-.37.86-.96.89-1.61,0-.6-.43-.84-.95-.54Z" fill="#94e03e"/><path d="M78.54,74.42c.51-.26.89-.06.93.45l.47,6.08,2.39,30.36,2.89-31.63c.06-.59.38-1.13.88-1.46.48-.28.87-.15.95.32l3.42,18.48.64-5.31c.08-.59.42-1.12.92-1.44l10.79-6.23,10.06-5.81c.52-.3.94-.06.94.54-.04.65-.38,1.25-.93,1.61l-11.66,6.73-8.41,4.84-1.33,11c-.08.58-.41,1.1-.9,1.43-.47.27-.85.13-.94-.33l-3.27-17.75-2.86,31.47-.37,4.13c-.08.61-.42,1.15-.93,1.49-.49.27-.89.07-.93-.45l-.09-1.15-3-38.32-5,32.49c-.1.57-.43,1.07-.91,1.39-.52.27-.89.07-.93-.44l-2-23-2.27,12.13c-.11.55-.44,1.03-.91,1.34l-9.36,5.39-11.67,6.74c-.51.29-.93,0-.93-.54.03-.66.37-1.26.93-1.61l10.07-5.81,10.26-5.93,3.4-18.13c.11-.55.44-1.04.91-1.35.52-.26.88-.05.93.44l1.94,22,4.15-27.17.86-5.61c.09-.56.41-1.06.87-1.38Z" fill="#fff"/><polygon points="65.98 144.96 66.01 158.01 62.18 160.22 62.15 150.49 60.2 151.61 60.2 148.3 65.98 144.96" fill="#fff"/><path d="M71.61,141.41c2.69-1.55,4.59-1,4.6,1.44,0,1.28-.28,2.6-1.94,5.28l-1.61,2.64,3.82-2.2v3.41l-9.1,5.26v-2.7l4.1-6.74c.51-.67.82-1.47.89-2.31,0-.62-.38-.8-1.11-.38-.79.51-1.38,1.28-1.67,2.17h-2.89c.89-2.47,2.63-4.55,4.91-5.87Z" fill="#fff"/><path d="M82.38,135.19c3-1.72,5.15-.47,5.16,3.85.13,3.94-1.81,7.65-5.12,9.79-3,1.74-5.16.48-5.17-3.85-.13-3.94,1.82-7.65,5.13-9.79ZM82.38,145.31c.74-.43,1.29-1.53,1.28-4s-.56-3-1.3-2.54-1.3,1.53-1.29,4,.57,3,1.31,2.55" fill="#fff"/><path d="M92.49,138.54c.93-.54,1.73-.19,1.73,1.12-.01,1.27-.66,2.44-1.72,3.13-.44.25-.76.31-1,.16v.33l-1.4.81v-5.57l1.47-.85v1.75c.22-.37.54-.68.92-.88ZM92.14,141.68c.38-.26.6-.69.58-1.15,0-.53-.26-.65-.58-.46-.38.25-.6.68-.57,1.13,0,.53.25.66.57.48" fill="#fff"/><path d="M97.06,135.89c.93-.53,1.72-.17,1.72,1.15,0,1.26-.65,2.43-1.71,3.11-.39.22-.69.29-.91.17v1.74l-1.47.85v-5.55l1.4-.81v.33c.22-.41.56-.76.97-.99ZM96.72,139.04c.38-.25.6-.68.58-1.14,0-.53-.26-.66-.59-.47-.38.25-.6.69-.58,1.15,0,.53.26.65.59.46" fill="#fff"/><path d="M103.97,131.9c.81-.46,1.42-.25,1.42,1v2.34l-1.47.85v-2c0-.52-.16-.62-.39-.49-.32.22-.5.61-.46,1v2l-1.47.85v-2c0-.52-.16-.62-.41-.48-.32.22-.5.61-.46,1v2l-1.48.85v-4.1l1.4-.8v.37c.24-.41.59-.76,1-1,.47-.27.87-.3,1.12,0,.26-.57.67-1.05,1.2-1.39Z" fill="#fff"/><path d="M42.91,200.77c3.54-2.05,6.42-.4,6.44,3.66-.23,4.51-2.61,8.63-6.4,11.08-3.55,2.05-6.43.41-6.44-3.67.24-4.5,2.62-8.62,6.4-11.07Z" fill="#fff"/><polygon points="120.16 162.12 120.17 164.89 56.31 201.76 56.3 199 120.16 162.12" fill="#fff"/><polygon points="120.23 183.63 120.23 186.4 56.37 223.27 56.36 220.5 120.23 183.63" fill="#fff"/><polygon points="90.62 205.91 90.63 208.67 56.38 228.44 56.38 225.68 90.62 205.91" fill="#fff"/><polygon points="81.49 200.81 81.49 203.58 56.35 218.1 56.35 215.33 81.49 200.81" fill="#fff"/><polygon points="113.21 171.32 113.22 174.08 56.32 206.93 56.32 204.17 113.21 171.32" fill="#fff"/><polygon points="95.51 171.18 95.52 173.94 56.29 196.59 56.29 193.82 95.51 171.18" fill="#fff"/><path d="M42.97,222.24c3.54-2.05,6.43-.41,6.44,3.66-.24,4.5-2.62,8.62-6.4,11.08-3.54,2.05-6.43.4-6.44-3.67.24-4.5,2.62-8.62,6.4-11.07Z" fill="#fff"/></g><g id="freepik--Treadmill--inject-73"><polygon points="202.76 251.38 191.83 245.03 46.18 317.56 57.14 323.89 202.76 251.38" fill="#455a64"/><polygon points="273.41 292.44 128.04 364.82 139.8 371.61 285.12 299.24 273.41 292.44" fill="#455a64"/><polygon points="202.76 251.38 191.83 245.03 46.18 317.56 57.14 323.89 202.76 251.38" fill="#fff" isolation="isolate" opacity=".3"/><polygon points="128.04 364.82 57.14 323.89 46.18 317.56 25.8 314.88 119.1 369.1 139.8 371.61 128.04 364.82" fill="#455a64"/><polygon points="128.04 364.82 57.14 323.89 46.18 317.56 25.8 314.88 119.1 369.1 139.8 371.61 128.04 364.82" fill="#fff" isolation="isolate" opacity=".5"/><polygon points="273.41 292.44 128.04 364.82 139.8 371.61 285.12 299.24 273.41 292.44" fill="#fff" isolation="isolate" opacity=".3"/><polygon points="119.1 369.1 25.8 314.88 25.82 339.48 25.84 350.32 119.13 404.54 119.1 369.1" fill="#455a64"/><path d="M34.82,342.24v-8.18c0-1.1.89-2,1.99-2.01.35,0,.7.09,1.01.27l69.72,40.52c1.55.89,2.5,2.54,2.5,4.33v8.18c0,1.1-.89,2-1.99,2.01-.35,0-.7-.09-1.01-.27l-69.69-40.52c-1.56-.89-2.52-2.54-2.53-4.33Z" fill="#37474f"/><polygon points="119.1 369.1 119.13 404.54 285.16 308.68 285.12 299.24 139.8 371.61 119.1 369.1" fill="#455a64"/><polygon points="119.1 369.1 119.13 404.54 285.16 308.68 285.12 299.24 139.8 371.61 119.1 369.1" fill="#fff" isolation="isolate" opacity=".1"/><polygon points="202.76 251.38 202.75 255.85 193.78 255.85 202.76 251.38" fill="#455a64"/><path d="M195.23,255.13l-138.09,68.76,70.9,40.93,141.22-70.32-67.38-39.16c-2.04-1.19-4.54-1.27-6.65-.21Z" fill="#37474f"/><path d="M120.93,260.96c-1.66,0-3,1.34-3,3v99.69c1.81,1.13,3.87,1.82,6,2v-101.68c0-1.66-1.33-3-2.99-3.01,0,0,0,0-.01,0Z" fill="#e0e0e0"/><path d="M120.93,260.96c-1.66,0-3,1.34-3,3v99.69c1.81,1.13,3.87,1.82,6,2v-101.68c0-1.66-1.33-3-2.99-3.01,0,0,0,0-.01,0Z" isolation="isolate" opacity=".2"/><path d="M120.93,260.96c-1.66,0-3,1.34-3,3v8.63c1.77.32,3.57.48,5.37.48h.64v-9.1c0-1.66-1.33-3-2.99-3.01,0,0-.01,0-.02,0Z" isolation="isolate" opacity=".3"/><path d="M41.96,218.32c-1.66,0-3,1.34-3,3v97.72c1.84,1.04,3.89,1.64,6,1.76v-99.47c0-1.66-1.33-3-2.99-3.01,0,0,0,0-.01,0Z" fill="#e0e0e0"/><path d="M41.96,218.32c-1.66,0-3,1.34-3,3v97.72c1.84,1.04,3.89,1.64,6,1.76v-99.47c0-1.66-1.33-3-2.99-3.01,0,0,0,0-.01,0Z" isolation="isolate" opacity=".2"/><path d="M41.96,218.32c-1.66,0-3,1.34-3,3v7.83l6,3.48v-11.3c0-1.66-1.33-3-2.99-3.01,0,0,0,0-.01,0Z" isolation="isolate" opacity=".3"/><path d="M64.76,198.01c-.41-.57-1.08-.89-1.78-.86l-19.32,4.4c.73-.07,1.44.26,1.85.86,1.22,1.62,1.6,3.73,1,5.67-.16.71-.7,1.28-1.4,1.48l19.23-4.4c.71-.19,1.25-.76,1.42-1.48.58-1.94.21-4.05-1-5.67Z" fill="#455a64"/><path d="M43.53,201.58h0l.12-.05-.12.05Z" fill="#455a64"/><path d="M46.55,208.08c.6-1.94.22-4.05-1-5.67-.41-.6-1.12-.93-1.85-.86h0l-.12.05c-.64.24-1.13.77-1.3,1.43-.59,1.94-.22,4.05,1,5.67.41.6,1.11.93,1.83.87h.05c.7-.21,1.23-.78,1.39-1.49Z" fill="#263238"/><path d="M158.59,253.22c-.4-.57-1.07-.9-1.77-.87l-19.32,4.42c.73-.07,1.44.26,1.85.87,1.22,1.62,1.59,3.72,1,5.66-.17.71-.71,1.27-1.41,1.48l19.23-4.39c.7-.21,1.24-.77,1.42-1.48.6-1.95.23-4.06-1-5.69Z" fill="#455a64"/><path d="M137.36,256.77h0s.08,0,.12,0h-.12Z" fill="#455a64"/><path d="M140.39,263.28c.59-1.94.22-4.04-1-5.66-.41-.61-1.12-.94-1.85-.87h0s-.08,0-.12,0c-.64.24-1.12.78-1.29,1.44-.6,1.94-.22,4.04,1,5.66.41.6,1.11.93,1.83.87h0c.7-.2,1.24-.74,1.43-1.44Z" fill="#263238"/><g opacity=".4"><path d="M64.76,198.01c-.41-.57-1.08-.89-1.78-.86l-19.32,4.4c.73-.07,1.44.26,1.85.86,1.22,1.62,1.6,3.73,1,5.67-.16.71-.7,1.28-1.4,1.48l19.23-4.4c.71-.19,1.25-.76,1.42-1.48.58-1.94.21-4.05-1-5.67Z" fill="#fff"/><path d="M43.53,201.58h0l.12-.05-.12.05Z" fill="#fff"/></g><g opacity=".4"><path d="M158.59,253.22c-.4-.57-1.07-.9-1.77-.87l-19.32,4.42c.73-.07,1.44.26,1.85.87,1.22,1.62,1.59,3.72,1,5.66-.17.71-.71,1.27-1.41,1.48l19.23-4.39c.7-.21,1.24-.77,1.42-1.48.6-1.95.23-4.06-1-5.69Z" fill="#fff"/><path d="M137.36,256.77h0s.08,0,.12,0h-.12Z" fill="#fff"/></g><path d="M137.1,258.29h0l-7.68,1.92c-6.3,1.59-12.98.65-18.6-2.61l-70.36-40.62c-1.92-1.09-2.6-3.53-1.51-5.45.54-.95,1.45-1.64,2.51-1.91l3.08-.76c1.06-.86.94-5.53-1.31-5.87l-3.23.79c-5.37,1.3-8.66,6.71-7.35,12.08.65,2.68,2.38,4.97,4.77,6.33l70.4,40.58c4.71,2.73,10.06,4.18,15.5,4.18,2.56-.02,5.12-.36,7.6-1l7.52-1.87c1.03-.77.91-5.44-1.34-5.79Z" fill="#e0e0e0"/><polygon points="48.73 229.15 48.73 208.3 93.85 234.36 93.85 255.2 48.73 229.15" fill="#455a64"/><polygon points="93.85 234.36 120.93 247.57 120.93 255.2 93.85 255.2 93.85 234.36" fill="#455a64"/><polygon points="48.73 208.3 93.85 234.36 120.93 247.57 75.8 221.52 48.73 208.3" fill="#455a64"/><polygon points="93.85 234.36 120.93 247.57 120.93 255.2 93.85 255.2 93.85 234.36" fill="#fff" isolation="isolate" opacity=".1"/><polygon points="48.73 208.3 93.85 234.36 120.93 247.57 75.8 221.52 48.73 208.3" fill="#fff" isolation="isolate" opacity=".3"/></g><g id="freepik--Character--inject-73"><path d="M199.37,290.97c17.27,10,17.36,26.13.21,36.1s-45.06,10-62.33,0-17.35-26.13-.2-36.1,45.06-9.97,62.32,0Z" isolation="isolate" opacity=".2"/><path d="M166.69,178.3l3.79-16.53h0c-5.17.72-10.05,2.79-14.17,6l-19.84,15.6,13.65,4.21,16.57-9.28Z" fill="#ffa8a7"/><path d="M175.96,252.63l2.77,6.25c1.59,3.61,5.36,5.77,9.28,5.31l23.4-2.67c1.97-.22,3.96-.08,5.87.43l5.12,1.36v-12l-1.4.41c-2.69.8-5.55.87-8.28.2l-8.53-2.1c-4.04-.99-8.27-.89-12.25.3h0l-.87-7.08-15.11,9.59Z" fill="#f28f8f"/><path d="M239.55,268.43c-.09-2.9-1.3-5.65-3.39-7.66-1.54-1.46-3.48-2.44-4.94-4-1.69-1.81-2.39-3.8-3.83-5.85-.25-.35-.6-.61-1-.77-.15-.01-.29-.01-.44,0-.51.04-1.01.18-1.46.42h0c.58.1,1.1.42,1.45.9,1.45,2,2.47,4.4,4.17,6.17,1.45,1.51,3.39,2.47,4.93,3.9,2.08,1.95,3.3,4.64,3.39,7.48.08,2.81-.95,7.66-3,7.66.65.16,1.33.05,1.9-.29,1.78-1.77,2.27-5.87,2.22-7.96Z" fill="#ebebeb"/><path d="M227.39,250.92c1.44,2.05,2.14,4,3.83,5.85,1.46,1.56,3.4,2.54,4.94,4,2.09,2.01,3.3,4.76,3.39,7.66,0,2.09-.44,6.19-2.15,7.93,2.18-1.31,2.78-5.94,2.71-8.2-.1-2.84-1.31-5.53-3.38-7.48-1.54-1.43-3.49-2.39-4.94-3.91-1.7-1.77-2.39-3.72-3.84-5.71-.36-.5-.92-.83-1.53-.91.39.16.72.43.97.77Z" fill="#455a64"/><path d="M220.48,251.41c-.5.22-1.04.3-1.58.23,0,0-1.58-.16-2.1-.26-1-.19-1.1.94-1.1.94.6.06,1.2.06,1.79,0,.27.42.71.7,1.21.78.5.1.99.25,1.46.45.48.22.77.7.76,1.22-.09.56-.64.89-1,1.36-.34.56-.37,1.25-.08,1.83-.66-.28-1.43-.06-1.84.53-.38.6-.6,1.29-.66,2-.1.47-.14.96-.1,1.44.03.49.27.95.65,1.26.39.31.95.31,1.34,0,1.28,2.08,7.13,2.87,10.06,6.8s3.57,6.72,6.17,6.72c2,0,3-4.85,3-7.66-.09-2.84-1.31-5.53-3.39-7.48-1.54-1.43-3.48-2.39-4.93-3.9-1.7-1.77-2.72-4.17-4.17-6.17-.35-.48-.87-.8-1.45-.9-.18-.02-.35-.02-.53,0-1.21.05-2.4.32-3.51.81Z" fill="#94e03e"/><path d="M234.7,275.98l.66-1.81c.09-.24.31-.41.56-.44,2-.24,2.63-.54,3.5-1.46-.12,1.12-.49,2.21-1.06,3.18-.7,1.21-2.23,1.66-3.47,1-.18-.08-.26-.29-.19-.47Z" fill="#455a64"/><path d="M222.04,259.14c0,.14-.06.28-.17.38-1.37,1.18-1.76,3.13-.95,4.74.11.25-.01.55-.27.65-.23.1-.49,0-.62-.2-.49-.98-.64-2.1-.43-3.18.21-1.08.78-2.05,1.61-2.77.21-.18.53-.16.71.05.08.09.12.21.12.33Z" fill="#37474f"/><path d="M225.11,260.55c0,.14-.05.26-.15.36-1.29,1.27-1.81,3.13-1.39,4.89.07.28-.1.55-.38.62s-.55-.1-.62-.38c-.5-2.11.13-4.32,1.66-5.85.19-.2.51-.2.71,0,0,0,0,0,0,0,.11.09.17.22.17.36Z" fill="#37474f"/><path d="M227.82,262.77c0,.15-.07.3-.19.39-1.15.94-1.71,2.42-1.49,3.89.04.27-.14.53-.41.58-.27.04-.53-.14-.58-.41-.29-1.83.42-3.68,1.86-4.85.22-.17.53-.13.7.08.07.09.11.2.11.32Z" fill="#37474f"/><path d="M230.05,264.92c0,.14-.06.28-.17.37-.98.9-1.46,2.21-1.31,3.53.04.27-.16.52-.43.56-.27.04-.52-.14-.56-.41,0,0,0-.01,0-.02-.2-1.64.41-3.28,1.63-4.4.19-.2.51-.2.71,0,0,0,0,0,0,0,.09.1.13.23.13.37Z" fill="#37474f"/><path d="M165.82,209.83c-.75,10.62,2.09,23,3,26.66l-1.57,3.76c-.39,9.65,13.83,14.92,20.35,11.16,10.22-16.34,15.4-25.2,13.39-35.48l-35.17-6.1Z" fill="#263238"/><path d="M169.67,234.85l6.29-12.52c-5.26-1.57-9.27-7.84-9.27-7.84.81,5.33,5.89,8.71,5.89,8.71-2.23,3.45-3.26,7.55-2.91,11.65Z" isolation="isolate" opacity=".3"/><path d="M187.82,247.85c-1.34-6-10.45-12.53-18.22-10.44l-7.26,16.05c-1.22,2.7-1.96,5.6-2.18,8.56l-2.89,38.75c-.2,2.71-.69,5.39-1.46,8l-.09.3,10.1,2.7h0c.04-4.48.88-8.91,2.48-13.09l7.72-20.14c1.5-3.92,2.18-8.11,2-12.3l-.12-3.17,9.92-15.22Z" fill="#ffa8a7"/><path d="M150.04,328.77c2.89-.09,5.64-1.31,7.65-3.39,1.47-1.54,2.45-3.48,4-4.93,1.81-1.7,3.81-2.4,5.85-3.84.35-.25.61-.6.77-1,.02-.15.02-.29,0-.44-.04-.51-.18-1.01-.41-1.46h0c-.1.58-.42,1.11-.9,1.45-2,1.45-4.39,2.47-6.16,4.17-1.52,1.45-2.48,3.4-3.91,4.93-1.95,2.08-4.64,3.3-7.48,3.39-2.8.08-7.66-.94-7.66-3-.16.65-.05,1.33.29,1.9,1.74,1.74,5.86,2.22,7.96,2.22Z" fill="#ebebeb"/><path d="M167.54,316.57c-2,1.44-4,2.14-5.85,3.84-1.55,1.45-2.53,3.39-4,4.93-2.01,2.08-4.76,3.3-7.65,3.39-2.1.06-6.19-.44-7.94-2.15,1.31,2.18,5.95,2.78,8.2,2.71,2.84-.09,5.53-1.31,7.48-3.38,1.43-1.54,2.39-3.48,3.91-4.94,1.77-1.69,3.72-2.39,5.72-3.84.5-.36.83-.92.9-1.53-.16.39-.43.72-.77.97Z" fill="#455a64"/><path d="M167.06,309.66c-.22-.49-.3-1.04-.23-1.57,0,0,.15-1.59.25-2.1.19-1-.58-1.05-.58-1.05,0,0-.15.79-.28,1.72-.43.28-.74.72-.85,1.22-.1.5-.25.99-.45,1.46-.21.48-.7.78-1.22.76-.55-.08-.89-.64-1.35-1-.56-.34-1.25-.37-1.84-.08.29-.66.07-1.43-.53-1.83-.6-.38-1.29-.61-2-.67-.48-.1-.96-.13-1.45-.1-.49.03-.94.27-1.25.65-.31.39-.31.95,0,1.34-2.09,1.28-2.88,7.13-6.81,10.06s-6.72,3.58-6.72,6.17c0,2,4.86,3,7.66,3,2.84-.09,5.53-1.31,7.48-3.39,1.43-1.53,2.39-3.48,3.91-4.93,1.77-1.7,4.16-2.72,6.16-4.17.62-.47.98-1.22.94-2-.07-1.2-.35-2.39-.84-3.49Z" fill="#94e03e"/><path d="M142.48,323.88l1.81.66c.25.09.42.31.45.57.23,2,.53,2.63,1.45,3.49-1.12-.12-2.2-.48-3.17-1.05-1.21-.7-1.66-2.24-1-3.48.08-.17.28-.25.46-.19Z" fill="#455a64"/><path d="M159.33,311.23c-.15,0-.29-.07-.38-.18-.58-.66-1.35-1.11-2.21-1.29-.86-.17-1.76-.05-2.54.35-.25.12-.55.02-.68-.23s-.02-.55.23-.67c2.03-1.04,4.52-.55,6,1.19.18.21.16.52-.05.7-.1.09-.23.14-.37.13Z" fill="#37474f"/><path d="M157.91,314.29c-.14,0-.26-.05-.36-.15-1.27-1.28-3.12-1.81-4.88-1.39-.27.07-.54-.09-.61-.36,0,0,0,0,0,0-.07-.26.09-.53.35-.6,0,0,0,0,0,0,2.11-.5,4.32.12,5.85,1.66.19.2.19.51,0,.71-.09.09-.22.14-.35.14h0Z" fill="#37474f"/><path d="M155.73,316.96c-.15,0-.3-.07-.4-.19-.94-1.15-2.42-1.72-3.89-1.5-.28.04-.54-.14-.58-.42-.04-.28.14-.54.42-.58h0c1.83-.29,3.67.42,4.84,1.86.18.21.15.53-.06.7-.09.08-.21.12-.33.12h0Z" fill="#37474f"/><path d="M153.55,319.23c-.14,0-.28-.06-.37-.17-.91-.97-2.22-1.46-3.54-1.3-.27.02-.52-.17-.56-.44-.03-.27.16-.52.43-.56,0,0,0,0,0,0,1.64-.2,3.28.41,4.4,1.63.18.21.16.54-.06.72-.09.07-.2.12-.31.12h0Z" fill="#37474f"/><path d="M192.32,160.9c-5.47-.43-10.97-.47-16.45-.12-2.46.04-4.88.62-7.09,1.7-2.84,1.81-4.83,4.7-5.52,8-.65,3.27-.86,6.61-.62,9.93.29,10.86,1.1,20.13,2.27,30.93,10.79,6.23,25,9.18,37,5.76.17-14-.52-28.81-3.34-42.53-1-4.96-2.45-10.32-6.25-13.67Z" fill="#455a64"/><path d="M192.32,160.9c-5.47-.43-10.97-.47-16.45-.12-2.46.04-4.88.62-7.09,1.7-2.84,1.81-4.83,4.7-5.52,8-.65,3.27-.86,6.61-.62,9.93.29,10.86,1.1,20.13,2.27,30.93,10.79,6.23,25,9.18,37,5.76.17-14-.52-28.81-3.34-42.53-1-4.96-2.45-10.32-6.25-13.67Z" fill="#fff" isolation="isolate" opacity=".3"/><path d="M224.93,188.77c.28-3-.97-5.95-3.32-7.84l-19.9-16.07c-2.7-2.18-5.95-3.57-9.39-4l-1.95-.15c-1.78,1.65-2.56,13.4,5.46,18.17l17.3,10.1-.17,22.23-5.92,6.76c-.37.41-.34,1.04.07,1.41.08.07.17.13.27.18.69.33,1.51.22,2.11-.26l1.92-1.57c-1.19,2.24-2.23,4.79-3.42,7-.3.43-.44.95-.42,1.48.08.45.36.84.76,1.06.39.22.82.36,1.27.4,1.56.18,3.15-.1,4.55-.81,1.4-.71,2.64-1.7,3.63-2.92,1.9-2.29,3.04-5.11,3.26-8.08,1.79-8.95,3.09-18,3.89-27.09Z" fill="#ffa8a7"/><path d="M172.29,156.65v1.8c-.05,1.32-.29,2.62-.72,3.87-.18.52-.18,1.1,0,1.62.38.89,1.14,1.57,2.07,1.83.91.25,1.87.28,2.8.09,2.77-.47,5.3-1.91,7.12-4.05l-.41-12.31-10.86,7.15Z" fill="#ffa8a7"/><path d="M180.97,154.85c.88-1.54,1.45-3.24,1.66-5l-10.34,6.79v1.8c0,.53-.06,1.05-.15,1.57,1.46-.25,2.88-.69,4.23-1.29,1.88-.81,3.48-2.16,4.6-3.87Z" isolation="isolate" opacity=".2"/><path d="M160.82,136.68c-2.41.08-4.66-1.19-5.84-3.29-.23-.43-.07-.96.35-1.19.2-.11.43-.13.65-.08.82.14,1.65.14,2.47,0-1.9-2.48-2.73-5.62-2.3-8.71.09-.6.65-1.01,1.26-.92.11.02.22.05.31.1,3.39,1.68,7.16,2.44,10.94,2.21,2-.14,4-.57,6-.72,2.01-.25,4.05.06,5.9.9,1.89.87,3.15,2.71,3.26,4.79.46-.66,1.2-1.08,2-1.16.84-.1,1.68.15,2.33.69l-3.46,1.92c1.33-.27,2.68.4,3.28,1.62.51,1.16.73,2.43.64,3.7.07,1.67,0,3.34-.22,5-.23,1.68-.89,3.26-1.91,4.61-.9,1.1-2.1,1.91-3.46,2.34-1.85.52-3.81.45-5.62-.18-1.8-.63-3.51-1.48-5.09-2.54-4.1-2.67-7.95-5.71-11.49-9.09Z" fill="#263238"/><path d="M160.6,133.33c-1.16,6.96-.39,14.1,2.22,20.66.48,1.57,1.47,2.94,2.81,3.88,1.48.85,3.32.67,5,.42,2.74-.31,5.41-1.06,7.91-2.23,2.52-1.19,4.48-3.3,5.48-5.9,1.83.37,3.7-.36,4.79-1.88,1.06-1.54,1.6-3.37,1.56-5.24,0-1.18-.22-2.58-1.28-3.1-1.06-.32-2.22-.04-3,.75-1.42,1.14-2.47,2.69-3,4.44-.78-2.89-2-5.68-2.78-8.56-.18-1.17-.77-2.24-1.68-3-1.21-.78-2.79-.33-4.19,0-4.56,1.1-9.32,1.02-13.84-.24Z" fill="#ffa8a7"/><polygon points="169.01 142.09 165.64 147.78 169.66 148.53 169.01 142.09" fill="#f28f8f"/><path d="M173.54,150.49l-3.06,1.49c.54.71,1.49.98,2.32.66.73-.45,1.04-1.35.74-2.15Z" fill="#f28f8f"/><path d="M173.54,150.49l-3.06,1.49c.54.71,1.49.98,2.32.66.73-.45,1.04-1.35.74-2.15Z" isolation="isolate" opacity=".3"/><path d="M171.74,152.77c.36.07.72.03,1.06-.1.57-.32.9-.96.82-1.61-.44,0-.86.14-1.2.42-.39.32-.64.79-.68,1.29Z" fill="#f28f8f"/><path d="M174.82,142.32c.09.63-.36,1.22-.99,1.3-.63.09-1.22-.36-1.3-.99-.09-.63.36-1.22.99-1.3.01,0,.03,0,.04,0,.62-.07,1.19.38,1.26,1Z" fill="#263238"/><path d="M165.15,142.92c.12.63-.3,1.24-.93,1.35s-1.24-.3-1.35-.93c-.01-.07-.02-.13-.02-.2,0-.64.5-1.17,1.14-1.18.56,0,1.05.39,1.16.95Z" fill="#263238"/><path d="M163.57,138.46l-2.38,2c-.29-.63-.16-1.37.32-1.86.6-.44,1.4-.49,2.06-.14Z" fill="#263238"/><path d="M173.4,137.32l2.73,1.51c.16-.67-.11-1.37-.68-1.75-.68-.31-1.46-.21-2.05.24Z" fill="#263238"/><path d="M174.16,204.85c0-.28,0-.55-.07-.82-.69-4.71-4.07-8.58-8.65-9.89l-14.88-9-10-5-4.12,3.25c-.93.72-1.62,1.7-2,2.81h0c-1.01,3.09.62,6.41,3.68,7.51l24,8.46c1.57,1.64,2.57,3.75,2.84,6,.06.66.19,1.31.39,1.95.69,1.55,2.32,2.46,4,2.23,1.64-.25,3.07-1.26,3.85-2.73.77-1.46,1.11-3.12.96-4.77Z" fill="#ffa8a7"/><path d="M166.14,194.14v-1.45h-1.06v.53l-2.26-1.32c-.48-.28-1.07-.28-1.55,0l-3.77,2.18v-.63l-1,.09v1.43c0,.18.1.35.26.44l3.1,1.8c.48.27,1.07.27,1.55,0l4.55-2.63c.15-.09.25-.25.25-.42h0l-.07-.02Z" fill="#94e03e"/><path d="M161.23,190.71l-3.85,2.23c-.21.11-.29.37-.18.58.04.08.1.14.18.18l2.64,1.52c.41.24.91.24,1.32,0l3.86-2.23c.21-.12.28-.39.16-.6-.04-.07-.09-.12-.16-.16l-2.65-1.52c-.41-.24-.91-.24-1.32,0Z" fill="#94e03e"/><path d="M166.14,194.14v-1.45h-1.06v.53l-2.26-1.32c-.48-.28-1.07-.28-1.55,0l-3.77,2.18v-.63l-1,.09v1.43c0,.18.1.35.26.44l3.1,1.8c.48.27,1.07.27,1.55,0l4.55-2.63c.15-.09.25-.25.25-.42h0l-.07-.02Z" isolation="isolate" opacity=".3"/><path d="M161.22,190.47l-4.53,2.62c-.25.14-.33.45-.2.69.05.08.11.15.2.2l3.13,1.79c.48.27,1.07.27,1.55,0l4.55-2.63c.25-.15.32-.47.18-.71-.04-.07-.1-.13-.18-.18l-3.1-1.78c-.49-.3-1.11-.3-1.6,0Z" fill="#94e03e"/><path d="M161.23,190.71l-3.85,2.23c-.21.11-.29.37-.18.58.04.08.1.14.18.18l2.64,1.52c.41.24.91.24,1.32,0l3.86-2.23c.21-.12.28-.39.16-.6-.04-.07-.09-.12-.16-.16l-2.65-1.52c-.41-.24-.91-.24-1.32,0Z" fill="#fff" isolation="isolate" opacity=".5"/><path d="M159.52,201.23c-.61-.57-.94-3.68.27-4.69l-3.1-1.79c-1,1.27-.75,4-.19,5.38.13.32.4.56.73.67.6.2,1.61.55,2,.68.24.09.51.06.73-.07l-.44-.18Z" fill="#455a64"/></g></g></svg>