<?xml version="1.0" encoding="UTF-8"?><svg id="Layer_2" xmlns="http://www.w3.org/2000/svg" width="444.62" height="433.26" viewBox="0 0 444.62 433.26"><g id="Layer_1-2"><g id="freepik--Signal--inject-175"><g id="freepik--signal--inject-175"><path d="M285.47,79.46c-.07-.59-.45-1.1-1-1.33-1.5-.76-3.26-.76-4.76,0-.54.24-.92.74-1,1.33h0v154.17h6.73V79.46h.03Z" fill="#37474f"/><path d="M285.47,79.46c0-1-1.5-1.9-3.36-1.9s-3.36.85-3.36,1.9,1.5,1.91,3.36,1.91,3.36-.86,3.36-1.91Z" fill="#455a64"/><polygon points="301.43 113.28 257.53 87.92 250.93 91.73 257.53 103.16 301.43 128.53 301.43 113.28" fill="#94e03e"/><g opacity=".4"><polygon points="301.43 113.28 257.53 87.92 250.93 91.73 257.53 103.16 301.43 128.53 301.43 113.28"/></g><polygon points="257.53 87.92 260.83 86.01 304.79 111.41 301.43 113.28 257.53 87.92" fill="#94e03e"/><g opacity=".3"><polygon points="257.53 87.92 260.83 86.01 304.79 111.41 301.43 113.28 257.53 87.92"/></g><polygon points="304.79 126.66 301.43 128.53 301.43 113.28 304.79 111.41 304.79 126.66" fill="#94e03e"/><polygon points="304.79 126.66 301.43 128.53 301.43 113.28 304.79 111.41 304.79 126.66" isolation="isolate" opacity=".55"/><g isolation="isolate"><text transform="translate(259.9 99.94) rotate(30.31) scale(.75 .86) skewX(33.83)" fill="#fff" font-family="Arial-BoldMT, Arial" font-size="9.68" font-weight="700" isolation="isolate" letter-spacing=".05em"><tspan x="0" y="0">2nd St</tspan></text><text transform="translate(282.59 113.2) rotate(30.31) scale(.75 .86) skewX(33.83)" fill="#fff" font-family="Arial-BoldMT, Arial" font-size="9.68" font-weight="700" isolation="isolate" letter-spacing=".05em"><tspan x="0" y="0">r</tspan></text><text transform="translate(285.76 115.06) rotate(30.31) scale(.75 .86) skewX(33.83)" fill="#fff" font-family="Arial-BoldMT, Arial" font-size="9.68" font-weight="700" isolation="isolate" letter-spacing=".05em"><tspan x="0" y="0">e</tspan></text><text transform="translate(289.89 117.47) rotate(30.31) scale(.75 .86) skewX(33.83)" fill="#fff" font-family="Arial-BoldMT, Arial" font-size="9.68" font-weight="700" isolation="isolate" letter-spacing=".05em"><tspan x="0" y="0">e</tspan></text><text transform="translate(294 119.88) rotate(30.31) scale(.75 .86) skewX(33.83)" fill="#fff" font-family="Arial-BoldMT, Arial" font-size="9.68" font-weight="700" isolation="isolate" letter-spacing=".05em"><tspan x="0" y="0">t</tspan></text></g></g></g><g id="freepik--Plants--inject-175"><g id="freepik--plants--inject-175"><path d="M410.17,309.98l-5.37-4.63s.21-16.56,5.05-29.88c6.82-18.73,21.27-22.83,25.68-20s4.41,8.79-6.39,18.28c-6.38,5.62-15.64,18.27-18.97,36.23Z" fill="#94e03e"/><g opacity=".15"><path d="M410.17,309.98l-5.37-4.63s.21-16.56,5.05-29.88c6.82-18.73,21.27-22.83,25.68-20s4.41,8.79-6.39,18.28c-6.38,5.62-15.64,18.27-18.97,36.23Z"/></g><path d="M409.48,301.85h.06c.24.01.45-.18.46-.42,0,0,0,0,0,0,1-18.57,12.16-37,21.88-43.38.2-.13.26-.39.13-.59,0,0,0,0,0,0-.14-.2-.4-.26-.61-.13-9.91,6.51-21.24,25.21-22.28,44.06-.02.23.14.43.36.47Z" fill="#fff"/><path d="M426,322.95c.85.73,3.06-.09,3.91-.45,1.47-.62,2.75-1.62,3.71-2.89,1.09-1.44,1.71-3.19,1.76-5,.03-.95,0-1.91-.12-2.86l-.24-2.8c-.14-.92-.1-1.85.13-2.75.58-1.76,2.44-2.72,4.11-3.53,1.86-.9,3.85-2.17,4.27-4.35.22-1.71-.13-3.45-1-4.94-.79-1.53-1.8-2.94-2.47-4.51-.56-1.12-.71-2.39-.44-3.61.24-.74.63-1.42,1.15-2,1.15-1.18,2.2-2.45,3.15-3.8.9-1.4.93-3.18.08-4.61-.92-1.01-2.2-1.61-3.57-1.66-1.27-.09-2.54.1-3.73.55-3.84,1.25-6.62,5-10.58,5.73-1.55.17-3.1.25-4.66.22-1.58,0-3.09.64-4.16,1.8-1.87,2.43,0,6.24-1.52,8.92-1.34,2.37-4,2.86-5.81,4.87-.76.9-1.21,2.02-1.29,3.19-.26,1.96-.15,3.95.31,5.87.55,1.93,1.25,3.82,2.09,5.64.08.07,14.8,12.87,14.92,12.97Z" fill="#94e03e"/><path d="M417.21,315.85h0c.24.04.47-.12.51-.36,0,0,0,0,0,0,2.62-17.27,14.37-34.6,21.31-38.95.2-.13.26-.39.14-.6-.13-.21-.4-.27-.61-.14,0,0,0,0,0,0-7.08,4.43-19.05,22.05-21.71,39.55-.04.24.12.46.36.5Z" fill="#fff"/><path d="M423.72,296.07h.13c4.27-.33,8.57-.19,12.81.41.24.04.47-.13.51-.37.04-.23-.12-.46-.35-.5,0,0-.01,0-.02,0-4.32-.61-8.7-.75-13.05-.42-.24.04-.41.26-.37.5.03.19.18.34.37.37h-.03Z" fill="#fff"/></g></g><g id="freepik--Clouds--inject-175"><g id="freepik--clouds--inject-175"><path id="freepik--Cloud--inject-175" d="M129.78,109.16l-5,2.89c.01-.22.01-.44,0-.66v-1.45c0-2.58-1.81-3.62-4-2.33-.96.59-1.78,1.38-2.41,2.31-.36-3.24-2.91-4.45-6-2.66-3.55,2.33-5.78,6.22-6,10.47v2.12c-.02.86.16,1.72.51,2.51l-4.15,2.4c-1.32.87-2.15,2.31-2.24,3.88,0,1.43,1,2,2.24,1.3l27.09-15.64c1.32-.87,2.15-2.31,2.24-3.88-.06-1.39-1.06-1.97-2.28-1.26Z" fill="#ebebeb"/><path id="freepik--cloud--inject-175" d="M150.55,122.04l-3.67,2.12c0-.16,0-.33,0-.49v-1.06c0-1.89-1.33-2.66-3-1.71-.7.43-1.3,1.01-1.76,1.7-.27-2.38-2.13-3.26-4.4-2-2.62,1.71-4.26,4.56-4.43,7.68v1.59c-.02.63.11,1.26.37,1.84l-3,1.76c-.97.63-1.58,1.68-1.64,2.84,0,1.05.73,1.47,1.64.95l19.89-11.41c.97-.63,1.58-1.68,1.64-2.84,0-1.07-.73-1.49-1.64-.97Z" fill="#ebebeb"/></g></g><g id="freepik--Device--inject-175"><g id="freepik--device--inject-175"><g id="freepik--device--inject-175-2"><g id="freepik--device--inject-175-3"><path d="M427.08,313.71c2.13,1.65,1.9,4-.68,5.47l-141.19,81.52c-3.23,1.63-7.04,1.63-10.27,0L5.12,244.91c-2.62-1.51-2.83-3.88-.61-5.52-2.67,2.02-4.32,5.11-4.51,8.46v6.79c.19,3.62,2.1,6.93,5.14,8.9l269.78,155.81c3.23,1.64,7.05,1.64,10.28,0l141.19-81.5c3.03-1.97,4.94-5.28,5.13-8.89v-6.8c-.18-3.33-1.8-6.41-4.44-8.45Z" fill="#455a64"/><path d="M426.4,313.26L156.57,157.47c-3.23-1.62-7.04-1.62-10.27,0L5.12,238.99c-2.84,1.63-2.84,4.29,0,5.92l269.82,155.79c3.23,1.63,7.04,1.63,10.27,0l141.19-81.52c2.83-1.63,2.83-4.33,0-5.92Z" fill="#37474f"/><path d="M4.51,239.39c-2.67,2.02-4.32,5.11-4.51,8.46v6.79c.19,3.62,2.1,6.93,5.14,8.9l269.78,155.81c1.58.84,3.36,1.26,5.15,1.23v-18.66c-1.79.03-3.56-.39-5.14-1.22L5.12,244.91c-2.62-1.51-2.83-3.88-.61-5.52Z" fill="#263238"/><path d="M74.14,212.47c1.44-.83,1.44-2.18,0-3-1.64-.84-3.58-.84-5.22,0-1.45.83-1.45,2.18,0,3,1.64.83,3.58.83,5.22,0Z"/><path d="M81.2,207.91l20.15-11.63c1.21-.69,1.27-1.79.14-2.44-1.34-.64-2.91-.61-4.22.08l-20.15,11.64c-1.2.69-1.26,1.78-.14,2.43,1.34.65,2.91.62,4.22-.08Z"/><path d="M165.71,169.97c-2.42-1.4-5-.59-7.38.82L26.33,246.93c-2.43,1.4-2.44,3.67,0,5.08l239.49,138.3c2.77,1.4,6.04,1.4,8.81,0l132-76.15c2.44-1.4,2.43-3.68,0-5.08l-240.92-139.11Z" fill="#94e03e"/><path d="M165.71,169.97c-2.42-1.4-5-.59-7.38.82L26.33,246.93c-2.43,1.4-2.44,3.67,0,5.08l239.49,138.3c2.77,1.4,6.04,1.4,8.81,0l132-76.15c2.44-1.4,2.43-3.68,0-5.08l-240.92-139.11Z" fill="#fff" isolation="isolate" opacity=".96"/></g></g><g opacity=".4"><path d="M270.26,388.07l49.74-28.7-8.35-2.41c-26.43-7.62-54.83-4.16-78.65,9.59h0l37.26,21.52Z" fill="#94e03e"/><path d="M328.55,354.42l74.27-42.88-49.71-28.69-29.33,70.2,4.77,1.37Z" fill="#94e03e"/><path d="M344.83,278.06l-29,72.69c-17.14-5.44-32.52-6.27-50.13-3.24l28-68.94,40.68-6.54,10.45,6.03Z" fill="#94e03e"/><path d="M252.87,350.3l10.16-25-78.93-9.36-13.25,14.74,55,31.76c8.43-5.22,17.52-9.3,27.02-12.14Z" fill="#94e03e"/><polygon points="303.56 254.26 328.26 268.49 295.65 273.76 303.56 254.26" fill="#94e03e"/><ellipse cx="145.99" cy="261.32" rx="8.79" ry="5.07" fill="#94e03e"/><path d="M281.45,279.06l-122.09-14.47c-1.29,2.94-3.49,3.6-8.62,4.72l34.06,39,81.2,9.54,15.45-38.79Z" fill="#94e03e"/><path d="M223.44,242.22l-9,21.75-55.44-6.58c-1.33-1.37-2.96-2.42-4.76-3.07l7.61-19.4,61.59,7.3Z" fill="#94e03e"/><polygon points="294.09 248.77 284.56 272.28 223.76 265.07 233.31 241.56 294.09 248.77" fill="#94e03e"/><polygon points="282.69 242.18 181.98 184.04 164.54 228.17 282.69 242.18" fill="#94e03e"/><path d="M138.62,268.62l37.19,42.53-13.25,14.7-71.89-41.5,44.33-17.4c1.14.7,2.35,1.26,3.62,1.67Z" fill="#94e03e"/><polygon points="156.35 227.2 174.99 180 162.56 172.83 83.38 218.54 156.35 227.2" fill="#94e03e"/><path d="M72.78,224.55l-42.78,24.81,53.85,31.09,47.5-18.72c-.1-2.28,1-4.47,4.48-6.51,2.86-1.65,6.43-2.27,10.38-2.36l7.41-18.91-80.84-9.4Z" fill="#94e03e"/></g><g id="freepik--City--inject-175"><polygon points="168.69 225.59 168.69 210.78 191.56 213.49 191.56 228.29 168.69 225.59" fill="#94e03e"/><polygon points="191.56 213.49 196.27 200.3 196.27 216.63 191.56 228.29 191.56 213.49" fill="#94e03e"/><polygon points="196.27 200.3 173.89 197.6 168.69 210.78 191.56 213.49 196.27 200.3" fill="#94e03e"/><polygon points="168.69 225.59 168.69 210.78 191.56 213.49 191.56 228.29 168.69 225.59" fill="#fff" isolation="isolate" opacity=".8"/><polygon points="191.56 213.49 196.27 200.3 196.27 216.63 191.56 228.29 191.56 213.49" fill="#fff" isolation="isolate" opacity=".75"/><polygon points="196.27 200.3 173.89 197.6 168.69 210.78 191.56 213.49 196.27 200.3" fill="#fff" isolation="isolate" opacity=".9"/><polygon points="183.68 257.21 183.68 250.58 206.56 253.28 206.56 259.92 183.68 257.21" fill="#94e03e"/><polygon points="206.56 253.28 210.64 241.85 210.64 250.01 206.56 259.92 206.56 253.28" fill="#94e03e"/><polygon points="210.64 241.85 188.25 239.15 183.68 250.58 206.56 253.28 210.64 241.85" fill="#94e03e"/><polygon points="183.68 257.21 183.68 250.58 206.56 253.28 206.56 259.92 183.68 257.21" fill="#fff" isolation="isolate" opacity=".8"/><polygon points="206.56 253.28 210.64 241.85 210.64 250.01 206.56 259.92 206.56 253.28" fill="#fff" isolation="isolate" opacity=".75"/><polygon points="210.64 241.85 188.25 239.15 183.68 250.58 206.56 253.28 210.64 241.85" fill="#fff" isolation="isolate" opacity=".9"/><polygon points="227.73 344.52 227.73 329.72 250.6 332.42 250.6 347.23 227.73 344.52" fill="#94e03e"/><polygon points="250.6 332.42 255.32 319.24 255.32 335.57 250.6 347.23 250.6 332.42" fill="#94e03e"/><polygon points="255.32 319.24 232.94 316.54 227.73 329.72 250.6 332.42 255.32 319.24" fill="#94e03e"/><polygon points="227.73 344.52 227.73 329.72 250.6 332.42 250.6 347.23 227.73 344.52" fill="#fff" isolation="isolate" opacity=".8"/><polygon points="250.6 332.42 255.32 319.24 255.32 335.57 250.6 347.23 250.6 332.42" fill="#fff" isolation="isolate" opacity=".75"/><polygon points="255.32 319.24 232.94 316.54 227.73 329.72 250.6 332.42 255.32 319.24" fill="#fff" isolation="isolate" opacity=".9"/><polygon points="227.34 232.25 227.34 226.8 238.92 228.17 238.92 233.62 227.34 232.25" fill="#94e03e"/><polygon points="238.92 228.17 241.3 221.49 241.3 227.72 238.92 233.62 238.92 228.17" fill="#94e03e"/><polygon points="241.3 221.49 229.97 220.13 227.34 226.8 238.92 228.17 241.3 221.49" fill="#94e03e"/><polygon points="227.34 232.25 227.34 226.8 238.92 228.17 238.92 233.62 227.34 232.25" fill="#fff" isolation="isolate" opacity=".8"/><polygon points="238.92 228.17 241.3 221.49 241.3 227.72 238.92 233.62 238.92 228.17" fill="#fff" isolation="isolate" opacity=".75"/><polygon points="241.3 221.49 229.97 220.13 227.34 226.8 238.92 228.17 241.3 221.49" fill="#fff" isolation="isolate" opacity=".9"/><polygon points="142.96 206.53 142.96 198.59 159.8 200.58 159.8 208.52 142.96 206.53" fill="#94e03e"/><polygon points="159.8 200.58 163.27 190.88 163.27 199.94 159.8 208.52 159.8 200.58" fill="#94e03e"/><polygon points="163.27 190.88 146.79 188.89 142.96 198.59 159.8 200.58 163.27 190.88" fill="#94e03e"/><polygon points="142.96 206.53 142.96 198.59 159.8 200.58 159.8 208.52 142.96 206.53" fill="#fff" isolation="isolate" opacity=".8"/><polygon points="159.8 200.58 163.27 190.88 163.27 199.94 159.8 208.52 159.8 200.58" fill="#fff" isolation="isolate" opacity=".75"/><polygon points="163.27 190.88 146.79 188.89 142.96 198.59 159.8 200.58 163.27 190.88" fill="#fff" isolation="isolate" opacity=".9"/><polygon points="229.35 263.15 229.35 256.08 244.37 257.85 244.37 264.93 229.35 263.15" fill="#94e03e"/><polygon points="244.37 257.85 247.46 249.2 247.46 257.28 244.37 264.93 244.37 257.85" fill="#94e03e"/><polygon points="247.46 249.2 232.77 247.43 229.35 256.08 244.37 257.85 247.46 249.2" fill="#94e03e"/><polygon points="229.35 263.15 229.35 256.08 244.37 257.85 244.37 264.93 229.35 263.15" fill="#fff" isolation="isolate" opacity=".8"/><polygon points="244.37 257.85 247.46 249.2 247.46 257.28 244.37 264.93 244.37 257.85" fill="#fff" isolation="isolate" opacity=".75"/><polygon points="247.46 249.2 232.77 247.43 229.35 256.08 244.37 257.85 247.46 249.2" fill="#fff" isolation="isolate" opacity=".9"/><polygon points="161.23 254.71 161.23 247.43 176.68 249.25 176.68 256.54 161.23 254.71" fill="#94e03e"/><polygon points="176.68 249.25 179.86 240.35 179.86 248.66 176.68 256.54 176.68 249.25" fill="#94e03e"/><polygon points="179.86 240.35 164.75 238.53 161.23 247.43 176.68 249.25 179.86 240.35" fill="#94e03e"/><polygon points="161.23 254.71 161.23 247.43 176.68 249.25 176.68 256.54 161.23 254.71" fill="#fff" isolation="isolate" opacity=".8"/><polygon points="176.68 249.25 179.86 240.35 179.86 248.66 176.68 256.54 176.68 249.25" fill="#fff" isolation="isolate" opacity=".75"/><polygon points="179.86 240.35 164.75 238.53 161.23 247.43 176.68 249.25 179.86 240.35" fill="#fff" isolation="isolate" opacity=".9"/><polygon points="248.78 265.39 248.78 258.31 263.8 260.09 263.8 267.17 248.78 265.39" fill="#94e03e"/><polygon points="263.8 260.09 266.89 251.44 266.89 259.51 263.8 267.17 263.8 260.09" fill="#94e03e"/><polygon points="266.89 251.44 252.2 249.66 248.78 258.31 263.8 260.09 266.89 251.44" fill="#94e03e"/><polygon points="248.78 265.39 248.78 258.31 263.8 260.09 263.8 267.17 248.78 265.39" fill="#fff" isolation="isolate" opacity=".8"/><polygon points="263.8 260.09 266.89 251.44 266.89 259.51 263.8 267.17 263.8 260.09" fill="#fff" isolation="isolate" opacity=".75"/><polygon points="266.89 251.44 252.2 249.66 248.78 258.31 263.8 260.09 266.89 251.44" fill="#fff" isolation="isolate" opacity=".9"/><polygon points="268.21 267.63 268.21 260.55 283.22 262.33 283.22 269.4 268.21 267.63" fill="#94e03e"/><polygon points="283.22 262.33 286.32 253.67 286.32 261.75 283.22 269.4 283.22 262.33" fill="#94e03e"/><polygon points="286.32 253.67 271.63 251.9 268.21 260.55 283.22 262.33 286.32 253.67" fill="#94e03e"/><polygon points="268.21 267.63 268.21 260.55 283.22 262.33 283.22 269.4 268.21 267.63" fill="#fff" isolation="isolate" opacity=".8"/><polygon points="283.22 262.33 286.32 253.67 286.32 261.75 283.22 269.4 283.22 262.33" fill="#fff" isolation="isolate" opacity=".75"/><polygon points="286.32 253.67 271.63 251.9 268.21 260.55 283.22 262.33 286.32 253.67" fill="#fff" isolation="isolate" opacity=".9"/><polygon points="88.51 244.02 88.51 236.94 103.53 238.72 103.53 245.8 88.51 244.02" fill="#94e03e"/><polygon points="103.53 238.72 106.62 230.07 106.62 238.14 103.53 245.8 103.53 238.72" fill="#94e03e"/><polygon points="106.62 230.07 91.93 228.29 88.51 236.94 103.53 238.72 106.62 230.07" fill="#94e03e"/><polygon points="88.51 244.02 88.51 236.94 103.53 238.72 103.53 245.8 88.51 244.02" fill="#fff" isolation="isolate" opacity=".8"/><polygon points="103.53 238.72 106.62 230.07 106.62 238.14 103.53 245.8 103.53 238.72" fill="#fff" isolation="isolate" opacity=".75"/><polygon points="106.62 230.07 91.93 228.29 88.51 236.94 103.53 238.72 106.62 230.07" fill="#fff" isolation="isolate" opacity=".9"/><polygon points="107.94 246.26 107.94 239.18 122.96 240.96 122.96 248.03 107.94 246.26" fill="#94e03e"/><polygon points="122.96 240.96 126.05 232.3 126.05 240.38 122.96 248.03 122.96 240.96" fill="#94e03e"/><polygon points="126.05 232.3 111.36 230.53 107.94 239.18 122.96 240.96 126.05 232.3" fill="#94e03e"/><polygon points="107.94 246.26 107.94 239.18 122.96 240.96 122.96 248.03 107.94 246.26" fill="#fff" isolation="isolate" opacity=".8"/><polygon points="122.96 240.96 126.05 232.3 126.05 240.38 122.96 248.03 122.96 240.96" fill="#fff" isolation="isolate" opacity=".75"/><polygon points="126.05 232.3 111.36 230.53 107.94 239.18 122.96 240.96 126.05 232.3" fill="#fff" isolation="isolate" opacity=".9"/><polygon points="127.37 248.49 127.37 241.42 142.38 243.2 142.38 250.27 127.37 248.49" fill="#94e03e"/><polygon points="142.38 243.2 145.48 234.54 145.48 242.62 142.38 250.27 142.38 243.2" fill="#94e03e"/><polygon points="145.48 234.54 130.78 232.77 127.37 241.42 142.38 243.2 145.48 234.54" fill="#94e03e"/><polygon points="127.37 248.49 127.37 241.42 142.38 243.2 142.38 250.27 127.37 248.49" fill="#fff" isolation="isolate" opacity=".8"/><polygon points="142.38 243.2 145.48 234.54 145.48 242.62 142.38 250.27 142.38 243.2" fill="#fff" isolation="isolate" opacity=".75"/><polygon points="145.48 234.54 130.78 232.77 127.37 241.42 142.38 243.2 145.48 234.54" fill="#fff" isolation="isolate" opacity=".9"/><polygon points="321.25 221.31 321.25 217.1 333.98 218.6 333.98 222.81 321.25 221.31" fill="#94e03e"/><polygon points="321.25 221.31 321.25 217.1 333.98 218.6 333.98 222.81 321.25 221.31" fill="#fff" isolation="isolate" opacity=".8"/><polygon points="333.98 218.6 335.84 213.14 335.84 218.26 333.98 222.81 333.98 218.6" fill="#94e03e"/><polygon points="333.98 218.6 335.84 213.14 335.84 218.26 333.98 222.81 333.98 218.6" fill="#fff" isolation="isolate" opacity=".75"/><polygon points="335.84 213.14 323.4 211.65 321.25 217.1 333.98 218.6 335.84 213.14" fill="#94e03e"/><polygon points="335.84 213.14 323.4 211.65 321.25 217.1 333.98 218.6 335.84 213.14" fill="#fff" isolation="isolate" opacity=".9"/><polygon points="230.99 310.38 230.99 303.3 246.01 305.08 246.01 312.16 230.99 310.38" fill="#94e03e"/><polygon points="246.01 305.08 249.1 296.42 249.1 304.5 246.01 312.16 246.01 305.08" fill="#94e03e"/><polygon points="249.1 296.42 234.41 294.65 230.99 303.3 246.01 305.08 249.1 296.42" fill="#94e03e"/><polygon points="230.99 310.38 230.99 303.3 246.01 305.08 246.01 312.16 230.99 310.38" fill="#fff" isolation="isolate" opacity=".8"/><polygon points="246.01 305.08 249.1 296.42 249.1 304.5 246.01 312.16 246.01 305.08" fill="#fff" isolation="isolate" opacity=".75"/><polygon points="249.1 296.42 234.41 294.65 230.99 303.3 246.01 305.08 249.1 296.42" fill="#fff" isolation="isolate" opacity=".9"/><polygon points="249.73 312.61 249.73 305.54 264.75 307.31 264.75 314.39 249.73 312.61" fill="#94e03e"/><polygon points="264.75 307.31 267.85 298.66 267.85 306.73 264.75 314.39 264.75 307.31" fill="#94e03e"/><polygon points="267.85 298.66 253.15 296.89 249.73 305.54 264.75 307.31 267.85 298.66" fill="#94e03e"/><polygon points="249.73 312.61 249.73 305.54 264.75 307.31 264.75 314.39 249.73 312.61" fill="#fff" isolation="isolate" opacity=".8"/><polygon points="264.75 307.31 267.85 298.66 267.85 306.73 264.75 314.39 264.75 307.31" fill="#fff" isolation="isolate" opacity=".75"/><polygon points="267.85 298.66 253.15 296.89 249.73 305.54 264.75 307.31 267.85 298.66" fill="#fff" isolation="isolate" opacity=".9"/><polygon points="183.55 334.09 183.55 327.02 198.57 328.79 198.57 335.87 183.55 334.09" fill="#94e03e"/><polygon points="198.57 328.79 201.66 320.14 201.66 328.22 198.57 335.87 198.57 328.79" fill="#94e03e"/><polygon points="201.66 320.14 186.97 318.36 183.55 327.02 198.57 328.79 201.66 320.14" fill="#94e03e"/><polygon points="183.55 334.09 183.55 327.02 198.57 328.79 198.57 335.87 183.55 334.09" fill="#fff" isolation="isolate" opacity=".8"/><polygon points="198.57 328.79 201.66 320.14 201.66 328.22 198.57 335.87 198.57 328.79" fill="#fff" isolation="isolate" opacity=".75"/><polygon points="201.66 320.14 186.97 318.36 183.55 327.02 198.57 328.79 201.66 320.14" fill="#fff" isolation="isolate" opacity=".9"/><polygon points="202.29 336.33 202.29 329.25 217.31 331.03 217.31 338.1 202.29 336.33" fill="#94e03e"/><polygon points="217.31 331.03 220.41 322.37 220.41 330.45 217.31 338.1 217.31 331.03" fill="#94e03e"/><polygon points="220.41 322.37 205.71 320.6 202.29 329.25 217.31 331.03 220.41 322.37" fill="#94e03e"/><polygon points="202.29 336.33 202.29 329.25 217.31 331.03 217.31 338.1 202.29 336.33" fill="#fff" isolation="isolate" opacity=".8"/><polygon points="217.31 331.03 220.41 322.37 220.41 330.45 217.31 338.1 217.31 331.03" fill="#fff" isolation="isolate" opacity=".75"/><polygon points="220.41 322.37 205.71 320.6 202.29 329.25 217.31 331.03 220.41 322.37" fill="#fff" isolation="isolate" opacity=".9"/><polygon points="316.25 300.5 316.25 293.42 331.26 295.2 331.26 302.27 316.25 300.5" fill="#94e03e"/><polygon points="331.26 295.2 334.36 286.54 334.36 294.62 331.26 302.27 331.26 295.2" fill="#94e03e"/><polygon points="334.36 286.54 319.66 284.77 316.25 293.42 331.26 295.2 334.36 286.54" fill="#94e03e"/><polygon points="316.25 300.5 316.25 293.42 331.26 295.2 331.26 302.27 316.25 300.5" fill="#fff" isolation="isolate" opacity=".8"/><polygon points="331.26 295.2 334.36 286.54 334.36 294.62 331.26 302.27 331.26 295.2" fill="#fff" isolation="isolate" opacity=".75"/><polygon points="334.36 286.54 319.66 284.77 316.25 293.42 331.26 295.2 334.36 286.54" fill="#fff" isolation="isolate" opacity=".9"/><polygon points="310.36 315.08 310.36 308 325.37 309.78 325.37 316.86 310.36 315.08" fill="#94e03e"/><polygon points="325.37 309.78 328.47 301.12 328.47 309.2 325.37 316.86 325.37 309.78" fill="#94e03e"/><polygon points="328.47 301.12 313.77 299.35 310.36 308 325.37 309.78 328.47 301.12" fill="#94e03e"/><polygon points="310.36 315.08 310.36 308 325.37 309.78 325.37 316.86 310.36 315.08" fill="#fff" isolation="isolate" opacity=".8"/><polygon points="325.37 309.78 328.47 301.12 328.47 309.2 325.37 316.86 325.37 309.78" fill="#fff" isolation="isolate" opacity=".75"/><polygon points="328.47 301.12 313.77 299.35 310.36 308 325.37 309.78 328.47 301.12" fill="#fff" isolation="isolate" opacity=".9"/><polygon points="304.46 329.66 304.46 322.58 319.48 324.36 319.48 331.44 304.46 329.66" fill="#94e03e"/><polygon points="319.48 324.36 322.58 315.7 322.58 323.78 319.48 331.44 319.48 324.36" fill="#94e03e"/><polygon points="322.58 315.7 307.88 313.93 304.46 322.58 319.48 324.36 322.58 315.7" fill="#94e03e"/><polygon points="304.46 329.66 304.46 322.58 319.48 324.36 319.48 331.44 304.46 329.66" fill="#fff" isolation="isolate" opacity=".8"/><polygon points="319.48 324.36 322.58 315.7 322.58 323.78 319.48 331.44 319.48 324.36" fill="#fff" isolation="isolate" opacity=".75"/><polygon points="322.58 315.7 307.88 313.93 304.46 322.58 319.48 324.36 322.58 315.7" fill="#fff" isolation="isolate" opacity=".9"/><polygon points="298.57 344.24 298.57 337.17 313.59 338.94 313.59 346.02 298.57 344.24" fill="#94e03e"/><polygon points="313.59 338.94 316.69 330.29 316.69 338.36 313.59 346.02 313.59 338.94" fill="#94e03e"/><polygon points="316.69 330.29 301.99 328.51 298.57 337.17 313.59 338.94 316.69 330.29" fill="#94e03e"/><polygon points="298.57 344.24 298.57 337.17 313.59 338.94 313.59 346.02 298.57 344.24" fill="#fff" isolation="isolate" opacity=".8"/><polygon points="313.59 338.94 316.69 330.29 316.69 338.36 313.59 346.02 313.59 338.94" fill="#fff" isolation="isolate" opacity=".75"/><polygon points="316.69 330.29 301.99 328.51 298.57 337.17 313.59 338.94 316.69 330.29" fill="#fff" isolation="isolate" opacity=".9"/><polygon points="290.75 297.53 290.75 290.46 305.77 292.23 305.77 299.31 290.75 297.53" fill="#94e03e"/><polygon points="305.77 292.23 308.87 283.58 308.87 291.65 305.77 299.31 305.77 292.23" fill="#94e03e"/><polygon points="308.87 283.58 294.17 281.8 290.75 290.46 305.77 292.23 308.87 283.58" fill="#94e03e"/><polygon points="290.75 297.53 290.75 290.46 305.77 292.23 305.77 299.31 290.75 297.53" fill="#fff" isolation="isolate" opacity=".8"/><polygon points="305.77 292.23 308.87 283.58 308.87 291.65 305.77 299.31 305.77 292.23" fill="#fff" isolation="isolate" opacity=".75"/><polygon points="308.87 283.58 294.17 281.8 290.75 290.46 305.77 292.23 308.87 283.58" fill="#fff" isolation="isolate" opacity=".9"/><polygon points="284.86 312.11 284.86 305.04 299.88 306.81 299.88 313.89 284.86 312.11" fill="#94e03e"/><polygon points="299.88 306.81 302.98 298.16 302.98 306.24 299.88 313.89 299.88 306.81" fill="#94e03e"/><polygon points="302.98 298.16 288.28 296.39 284.86 305.04 299.88 306.81 302.98 298.16" fill="#94e03e"/><polygon points="284.86 312.11 284.86 305.04 299.88 306.81 299.88 313.89 284.86 312.11" fill="#fff" isolation="isolate" opacity=".8"/><polygon points="299.88 306.81 302.98 298.16 302.98 306.24 299.88 313.89 299.88 306.81" fill="#fff" isolation="isolate" opacity=".75"/><polygon points="302.98 298.16 288.28 296.39 284.86 305.04 299.88 306.81 302.98 298.16" fill="#fff" isolation="isolate" opacity=".9"/><polygon points="278.97 326.7 278.97 319.62 293.99 321.4 293.99 328.47 278.97 326.7" fill="#94e03e"/><polygon points="293.99 321.4 297.09 312.74 297.09 320.82 293.99 328.47 293.99 321.4" fill="#94e03e"/><polygon points="297.09 312.74 282.39 310.97 278.97 319.62 293.99 321.4 297.09 312.74" fill="#94e03e"/><polygon points="278.97 326.7 278.97 319.62 293.99 321.4 293.99 328.47 278.97 326.7" fill="#fff" isolation="isolate" opacity=".8"/><polygon points="293.99 321.4 297.09 312.74 297.09 320.82 293.99 328.47 293.99 321.4" fill="#fff" isolation="isolate" opacity=".75"/><polygon points="297.09 312.74 282.39 310.97 278.97 319.62 293.99 321.4 297.09 312.74" fill="#fff" isolation="isolate" opacity=".9"/><polygon points="273.08 341.28 273.08 334.2 288.1 335.98 288.1 343.05 273.08 341.28" fill="#94e03e"/><polygon points="288.1 335.98 291.2 327.32 291.2 335.4 288.1 343.05 288.1 335.98" fill="#94e03e"/><polygon points="291.2 327.32 276.5 325.55 273.08 334.2 288.1 335.98 291.2 327.32" fill="#94e03e"/><polygon points="273.08 341.28 273.08 334.2 288.1 335.98 288.1 343.05 273.08 341.28" fill="#fff" isolation="isolate" opacity=".8"/><polygon points="288.1 335.98 291.2 327.32 291.2 335.4 288.1 343.05 288.1 335.98" fill="#fff" isolation="isolate" opacity=".75"/><polygon points="291.2 327.32 276.5 325.55 273.08 334.2 288.1 335.98 291.2 327.32" fill="#fff" isolation="isolate" opacity=".9"/><polygon points="341.13 324.2 341.13 318.64 352.95 320.04 352.95 325.6 341.13 324.2" fill="#94e03e"/><polygon points="352.95 320.04 355.38 313.23 355.38 319.58 352.95 325.6 352.95 320.04" fill="#94e03e"/><polygon points="355.38 313.23 343.82 311.83 341.13 318.64 352.95 320.04 355.38 313.23" fill="#94e03e"/><polygon points="341.13 324.2 341.13 318.64 352.95 320.04 352.95 325.6 341.13 324.2" fill="#fff" isolation="isolate" opacity=".8"/><polygon points="352.95 320.04 355.38 313.23 355.38 319.58 352.95 325.6 352.95 320.04" fill="#fff" isolation="isolate" opacity=".75"/><polygon points="355.38 313.23 343.82 311.83 341.13 318.64 352.95 320.04 355.38 313.23" fill="#fff" isolation="isolate" opacity=".9"/><polygon points="335.23 340.6 335.23 335.03 347.04 336.43 347.04 341.99 335.23 340.6" fill="#94e03e"/><polygon points="347.04 336.43 349.48 329.62 349.48 335.97 347.04 341.99 347.04 336.43" fill="#94e03e"/><polygon points="349.48 329.62 337.92 328.22 335.23 335.03 347.04 336.43 349.48 329.62" fill="#94e03e"/><polygon points="335.23 340.6 335.23 335.03 347.04 336.43 347.04 341.99 335.23 340.6" fill="#fff" isolation="isolate" opacity=".8"/><polygon points="347.04 336.43 349.48 329.62 349.48 335.97 347.04 341.99 347.04 336.43" fill="#fff" isolation="isolate" opacity=".75"/><polygon points="349.48 329.62 337.92 328.22 335.23 335.03 347.04 336.43 349.48 329.62" fill="#fff" isolation="isolate" opacity=".9"/><polygon points="208.38 307.45 208.38 280.93 227 283.13 227 309.64 208.38 307.45" fill="#94e03e"/><polygon points="208.38 307.45 208.38 280.93 227 283.13 227 309.64 208.38 307.45" fill="#fff" isolation="isolate" opacity=".8"/><polygon points="227 283.13 229.41 276.66 229.41 304.5 227 309.64 227 283.13" fill="#94e03e"/><polygon points="227 283.13 229.41 276.66 229.41 304.5 227 309.64 227 283.13" fill="#fff" isolation="isolate" opacity=".75"/><polygon points="229.41 276.66 211.22 274.48 208.38 280.93 227 283.13 229.41 276.66" fill="#94e03e"/><polygon points="229.41 276.66 211.22 274.48 208.38 280.93 227 283.13 229.41 276.66" fill="#fff" isolation="isolate" opacity=".9"/><polygon points="114.26 218.32 114.26 186.96 124.99 188.16 124.99 219.51 114.26 218.32" fill="#94e03e"/><polygon points="114.26 218.32 114.26 186.96 124.99 188.16 124.99 219.51 114.26 218.32" fill="#fff" isolation="isolate" opacity=".8"/><polygon points="124.99 188.16 127.4 181.69 127.4 214.37 124.99 219.51 124.99 188.16" fill="#94e03e"/><polygon points="124.99 188.16 127.4 181.69 127.4 214.37 124.99 219.51 124.99 188.16" fill="#fff" isolation="isolate" opacity=".75"/><polygon points="127.4 181.69 117.1 180.51 114.26 186.96 124.99 188.16 127.4 181.69" fill="#94e03e"/><polygon points="127.4 181.69 117.1 180.51 114.26 186.96 124.99 188.16 127.4 181.69" fill="#fff" isolation="isolate" opacity=".9"/><polygon points="126.19 217.22 126.19 189.57 131.87 190.18 131.87 217.84 126.19 217.22" fill="#94e03e"/><polygon points="126.19 217.22 126.19 189.57 131.87 190.18 131.87 217.84 126.19 217.22" fill="#fff" isolation="isolate" opacity=".8"/><polygon points="131.87 190.18 132.76 187.35 132.76 216.13 131.87 217.84 131.87 190.18" fill="#94e03e"/><polygon points="131.87 190.18 132.76 187.35 132.76 216.13 131.87 217.84 131.87 190.18" fill="#fff" isolation="isolate" opacity=".75"/><polygon points="132.76 187.35 127.44 186.74 126.19 189.57 131.87 190.18 132.76 187.35" fill="#94e03e"/><polygon points="132.76 187.35 127.44 186.74 126.19 189.57 131.87 190.18 132.76 187.35" fill="#fff" isolation="isolate" opacity=".9"/><polygon points="186.12 304.8 186.12 278.28 204.74 280.47 204.74 306.99 186.12 304.8" fill="#94e03e"/><polygon points="186.12 304.8 186.12 278.28 204.74 280.47 204.74 306.99 186.12 304.8" fill="#fff" isolation="isolate" opacity=".8"/><polygon points="204.74 280.47 207.16 274.01 207.16 301.85 204.74 306.99 204.74 280.47" fill="#94e03e"/><polygon points="204.74 280.47 207.16 274.01 207.16 301.85 204.74 306.99 204.74 280.47" fill="#fff" isolation="isolate" opacity=".75"/><polygon points="207.16 274.01 188.97 271.83 186.12 278.28 204.74 280.47 207.16 274.01" fill="#94e03e"/><polygon points="207.16 274.01 188.97 271.83 186.12 278.28 204.74 280.47 207.16 274.01" fill="#fff" isolation="isolate" opacity=".9"/><polygon points="137.21 221.31 137.21 213.37 154.04 215.36 154.04 223.3 137.21 221.31" fill="#94e03e"/><polygon points="154.04 215.36 157.52 205.66 157.52 214.72 154.04 223.3 154.04 215.36" fill="#94e03e"/><polygon points="157.52 205.66 141.04 203.67 137.21 213.37 154.04 215.36 157.52 205.66" fill="#94e03e"/><polygon points="137.21 221.31 137.21 213.37 154.04 215.36 154.04 223.3 137.21 221.31" fill="#fff" isolation="isolate" opacity=".8"/><polygon points="154.04 215.36 157.52 205.66 157.52 214.72 154.04 223.3 154.04 215.36" fill="#fff" isolation="isolate" opacity=".75"/><polygon points="157.52 205.66 141.04 203.67 137.21 213.37 154.04 215.36 157.52 205.66" fill="#fff" isolation="isolate" opacity=".9"/><polygon points="122.52 278.2 110.46 285.16 100.8 279.62 113.48 272.3 122.52 278.2" fill="#94e03e"/><polygon points="122.52 278.2 110.46 285.16 100.8 279.62 113.48 272.3 122.52 278.2" fill="#fff" isolation="isolate" opacity=".9"/><polygon points="100.8 285.36 100.8 279.62 110.46 285.16 110.46 290.93 100.8 285.36" fill="#94e03e"/><polygon points="100.8 285.36 100.8 279.62 110.46 285.16 110.46 290.93 100.8 285.36" fill="#fff" isolation="isolate" opacity=".8"/><polygon points="122.52 278.2 122.52 283.97 110.46 290.93 110.46 285.16 122.52 278.2" fill="#94e03e"/><polygon points="122.52 278.2 122.52 283.97 110.46 290.93 110.46 285.16 122.52 278.2" fill="#fff" isolation="isolate" opacity=".75"/><polygon points="136 286.15 123.94 293.11 114.29 287.57 126.97 280.26 136 286.15" fill="#94e03e"/><polygon points="136 286.15 123.94 293.11 114.29 287.57 126.97 280.26 136 286.15" fill="#fff" isolation="isolate" opacity=".9"/><polygon points="114.29 293.31 114.29 287.57 123.94 293.11 123.94 298.88 114.29 293.31" fill="#94e03e"/><polygon points="114.29 293.31 114.29 287.57 123.94 293.11 123.94 298.88 114.29 293.31" fill="#fff" isolation="isolate" opacity=".8"/><polygon points="136 286.15 136 291.92 123.94 298.88 123.94 293.11 136 286.15" fill="#94e03e"/><polygon points="136 286.15 136 291.92 123.94 298.88 123.94 293.11 136 286.15" fill="#fff" isolation="isolate" opacity=".75"/><polygon points="149.76 294.03 137.7 300.98 128.04 295.45 140.72 288.13 149.76 294.03" fill="#94e03e"/><polygon points="149.76 294.03 137.7 300.98 128.04 295.45 140.72 288.13 149.76 294.03" fill="#fff" isolation="isolate" opacity=".9"/><polygon points="128.04 301.18 128.04 295.45 137.7 300.98 137.7 306.76 128.04 301.18" fill="#94e03e"/><polygon points="128.04 301.18 128.04 295.45 137.7 300.98 137.7 306.76 128.04 301.18" fill="#fff" isolation="isolate" opacity=".8"/><polygon points="149.76 294.03 149.76 299.8 137.7 306.76 137.7 300.98 149.76 294.03" fill="#94e03e"/><polygon points="149.76 294.03 149.76 299.8 137.7 306.76 137.7 300.98 149.76 294.03" fill="#fff" isolation="isolate" opacity=".75"/><polygon points="169.28 297.58 157.22 304.54 147.56 299 160.24 291.69 169.28 297.58" fill="#94e03e"/><polygon points="169.28 297.58 157.22 304.54 147.56 299 160.24 291.69 169.28 297.58" fill="#fff" isolation="isolate" opacity=".9"/><polygon points="147.56 312.81 147.56 299 157.22 304.54 157.22 318.39 147.56 312.81" fill="#94e03e"/><polygon points="147.56 312.81 147.56 299 157.22 304.54 157.22 318.39 147.56 312.81" fill="#fff" isolation="isolate" opacity=".8"/><polygon points="169.28 297.58 169.28 311.42 157.22 318.39 157.22 304.54 169.28 297.58" fill="#94e03e"/><polygon points="169.28 297.58 169.28 311.42 157.22 318.39 157.22 304.54 169.28 297.58" fill="#fff" isolation="isolate" opacity=".75"/><polygon points="97.17 265.11 84.1 270 74.44 264.47 88.14 259.22 97.17 265.11" fill="#94e03e"/><polygon points="97.17 265.11 84.1 270 74.44 264.47 88.14 259.22 97.17 265.11" fill="#fff" isolation="isolate" opacity=".9"/><polygon points="74.44 270.2 74.44 264.47 84.1 270 84.1 275.78 74.44 270.2" fill="#94e03e"/><polygon points="74.44 270.2 74.44 264.47 84.1 270 84.1 275.78 74.44 270.2" fill="#fff" isolation="isolate" opacity=".8"/><polygon points="97.17 265.11 97.17 270.88 84.1 275.78 84.1 270 97.17 265.11" fill="#94e03e"/><polygon points="97.17 265.11 97.17 270.88 84.1 275.78 84.1 270 97.17 265.11" fill="#fff" isolation="isolate" opacity=".75"/><polygon points="118.13 257.11 105.05 262.01 95.39 256.47 109.09 251.22 118.13 257.11" fill="#94e03e"/><polygon points="118.13 257.11 105.05 262.01 95.39 256.47 109.09 251.22 118.13 257.11" fill="#fff" isolation="isolate" opacity=".9"/><polygon points="95.39 262.21 95.39 256.47 105.05 262.01 105.05 267.78 95.39 262.21" fill="#94e03e"/><polygon points="95.39 262.21 95.39 256.47 105.05 262.01 105.05 267.78 95.39 262.21" fill="#fff" isolation="isolate" opacity=".8"/><polygon points="118.13 257.11 118.13 262.89 105.05 267.78 105.05 262.01 118.13 257.11" fill="#94e03e"/><polygon points="118.13 257.11 118.13 262.89 105.05 267.78 105.05 262.01 118.13 257.11" fill="#fff" isolation="isolate" opacity=".75"/><polygon points="197.48 228.41 197.48 220.05 221.92 222.93 221.92 231.29 197.48 228.41" fill="#94e03e"/><polygon points="197.48 228.41 197.48 220.05 221.92 222.93 221.92 231.29 197.48 228.41" fill="#fff" isolation="isolate" opacity=".75"/><polygon points="221.92 222.93 227.08 208.48 227.08 218.52 221.92 231.29 221.92 222.93" fill="#94e03e"/><polygon points="221.92 222.93 227.08 208.48 227.08 218.52 221.92 231.29 221.92 222.93" fill="#fff" isolation="isolate" opacity=".65"/><polygon points="227.08 208.48 203.18 205.6 197.48 220.05 221.92 222.93 227.08 208.48" fill="#94e03e"/><polygon points="227.08 208.48 203.18 205.6 197.48 220.05 221.92 222.93 227.08 208.48" fill="#fff" isolation="isolate" opacity=".9"/><polygon points="200.62 217.97 200.62 177.19 219.76 179.44 219.76 220.22 200.62 217.97" fill="#94e03e"/><polygon points="200.62 217.97 200.62 177.19 219.76 179.44 219.76 220.22 200.62 217.97" fill="#fff" isolation="isolate" opacity=".75"/><polygon points="219.76 179.44 223.94 167.74 223.94 209.87 219.76 220.22 219.76 179.44" fill="#94e03e"/><polygon points="219.76 179.44 223.94 167.74 223.94 209.87 219.76 220.22 219.76 179.44" fill="#fff" isolation="isolate" opacity=".65"/><polygon points="223.94 167.74 205.24 165.49 200.62 177.19 219.76 179.44 223.94 167.74" fill="#94e03e"/><polygon points="223.94 167.74 205.24 165.49 200.62 177.19 219.76 179.44 223.94 167.74" fill="#fff" isolation="isolate" opacity=".9"/><polygon points="206.59 174.56 206.59 152.33 217.03 153.56 217.03 175.79 206.59 174.56" fill="#94e03e"/><polygon points="206.59 174.56 206.59 152.33 217.03 153.56 217.03 175.79 206.59 174.56" fill="#fff" isolation="isolate" opacity=".75"/><polygon points="217.03 153.56 219.31 147.18 219.31 170.15 217.03 175.79 217.03 153.56" fill="#94e03e"/><polygon points="217.03 153.56 219.31 147.18 219.31 170.15 217.03 175.79 217.03 153.56" fill="#fff" isolation="isolate" opacity=".65"/><polygon points="219.31 147.18 209.1 145.95 206.59 152.33 217.03 153.56 219.31 147.18" fill="#94e03e"/><polygon points="219.31 147.18 209.1 145.95 206.59 152.33 217.03 153.56 219.31 147.18" fill="#fff" isolation="isolate" opacity=".9"/><polygon points="317.28 287.07 317.28 222.81 336.43 225.06 336.43 289.32 317.28 287.07" fill="#94e03e"/><polygon points="317.28 287.07 317.28 222.81 336.43 225.06 336.43 289.32 317.28 287.07" fill="#fff" isolation="isolate" opacity=".75"/><polygon points="336.43 225.06 339.23 216.87 339.23 282.48 336.43 289.32 336.43 225.06" fill="#94e03e"/><polygon points="336.43 225.06 339.23 216.87 339.23 282.48 336.43 289.32 336.43 225.06" fill="#fff" isolation="isolate" opacity=".65"/><polygon points="339.23 216.87 320.52 214.62 317.28 222.81 336.43 225.06 339.23 216.87" fill="#94e03e"/><polygon points="339.23 216.87 320.52 214.62 317.28 222.81 336.43 225.06 339.23 216.87" fill="#fff" isolation="isolate" opacity=".9"/><polygon points="348.26 307.57 348.26 248.07 364.95 249.92 364.95 309.43 348.26 307.57" fill="#94e03e"/><polygon points="348.26 307.57 348.26 248.07 364.95 249.92 364.95 309.43 348.26 307.57" fill="#fff" isolation="isolate" opacity=".75"/><polygon points="364.95 249.92 368.71 239.87 368.71 301.43 364.95 309.43 364.95 249.92" fill="#94e03e"/><polygon points="364.95 249.92 368.71 239.87 368.71 301.43 364.95 309.43 364.95 249.92" fill="#fff" isolation="isolate" opacity=".65"/><polygon points="368.71 239.87 352.68 238.02 348.26 248.07 364.95 249.92 368.71 239.87" fill="#94e03e"/><polygon points="368.71 239.87 352.68 238.02 348.26 248.07 364.95 249.92 368.71 239.87" fill="#fff" isolation="isolate" opacity=".9"/><polygon points="366.83 305.87 366.83 252.13 375.67 253.08 375.67 306.82 366.83 305.87" fill="#94e03e"/><polygon points="366.83 305.87 366.83 252.13 375.67 253.08 375.67 306.82 366.83 305.87" fill="#fff" isolation="isolate" opacity=".75"/><polygon points="375.67 253.08 377.04 248.67 377.04 304.18 375.67 306.82 375.67 253.08" fill="#94e03e"/><polygon points="375.67 253.08 377.04 248.67 377.04 304.18 375.67 306.82 375.67 253.08" fill="#fff" isolation="isolate" opacity=".65"/><polygon points="377.04 248.67 368.77 247.73 366.83 252.13 375.67 253.08 377.04 248.67" fill="#94e03e"/><polygon points="377.04 248.67 368.77 247.73 366.83 252.13 375.67 253.08 377.04 248.67" fill="#fff" isolation="isolate" opacity=".9"/><polygon points="37.53 242.02 61.91 256.09 61.91 263.74 37.53 249.67 37.53 242.02" fill="#94e03e"/><polygon points="37.53 242.02 61.91 256.09 61.91 263.74 37.53 249.67 37.53 242.02" isolation="isolate" opacity=".35"/><polyline points="86.28 249.67 86.28 242.02 61.91 256.09 61.91 263.74" fill="#94e03e"/><polygon points="86.28 242.02 61.91 256.09 61.91 263.74 86.28 249.67 86.28 242.02" isolation="isolate" opacity=".15"/><polygon points="86.28 242.02 61.91 227.95 37.53 242.02 61.91 256.09 86.28 242.02" fill="#94e03e"/><polygon points="86.28 242.02 61.91 227.95 37.53 242.02 61.91 256.09 86.28 242.02" isolation="isolate" opacity=".5"/><polygon points="37.53 240.84 61.91 254.91 61.91 252.57 37.53 238.5 37.53 240.84" fill="#94e03e"/><polygon points="37.53 240.84 61.91 254.91 61.91 252.57 37.53 238.5 37.53 240.84" isolation="isolate" opacity=".35"/><polygon points="61.91 254.91 86.28 240.84 86.28 238.5 61.91 252.57 61.91 254.91" fill="#94e03e"/><polygon points="61.91 254.91 86.28 240.84 86.28 238.5 61.91 252.57 61.91 254.91" isolation="isolate" opacity=".15"/><polygon points="86.28 238.5 61.91 224.43 37.53 238.5 61.91 252.57 86.28 238.5" fill="#94e03e"/><polygon points="86.28 238.5 61.91 224.43 37.53 238.5 61.91 252.57 86.28 238.5" isolation="isolate" opacity=".5"/><polygon points="37.53 237.06 61.91 251.13 61.91 248.79 37.53 234.72 37.53 237.06" fill="#94e03e"/><polygon points="37.53 237.06 61.91 251.13 61.91 248.79 37.53 234.72 37.53 237.06" isolation="isolate" opacity=".35"/><polygon points="61.91 251.13 86.28 237.06 86.28 234.72 61.91 248.79 61.91 251.13" fill="#94e03e"/><polygon points="61.91 251.13 86.28 237.06 86.28 234.72 61.91 248.79 61.91 251.13" isolation="isolate" opacity=".15"/><polygon points="86.28 234.72 61.91 220.65 37.53 234.72 61.91 248.79 86.28 234.72" fill="#94e03e"/><polygon points="86.28 234.72 61.91 220.65 37.53 234.72 61.91 248.79 86.28 234.72" isolation="isolate" opacity=".5"/><polygon points="61.91 246.15 61.91 187.07 41.6 175.35 41.6 234.42 61.91 246.15" fill="#94e03e"/><polygon points="61.91 187.07 82.22 175.35 82.22 234.42 61.91 246.15 61.91 187.07" fill="#94e03e"/><polygon points="82.22 175.35 61.91 163.62 41.6 175.35 61.91 187.07 82.22 175.35" fill="#94e03e"/><polygon points="82.22 175.35 61.91 163.62 41.6 175.35 61.91 187.07 82.22 175.35" isolation="isolate" opacity=".4"/><polygon points="61.91 246.15 61.91 187.07 41.6 175.35 41.6 234.42 61.91 246.15" isolation="isolate" opacity=".2"/><polygon points="61.91 184.73 61.91 134.97 45.66 125.37 45.66 175.35 61.91 184.73" fill="#94e03e"/><polygon points="61.91 184.73 61.91 134.97 78.15 125.37 78.15 175.35 61.91 184.73" fill="#94e03e"/><polygon points="78.15 125.37 61.91 116.1 45.66 125.37 61.91 134.97 78.15 125.37" fill="#94e03e"/><polygon points="78.15 125.37 61.91 116.1 45.66 125.37 61.91 134.97 78.15 125.37" isolation="isolate" opacity=".4"/><polygon points="61.91 184.73 61.91 134.97 45.66 125.37 45.66 175.35 61.91 184.73" isolation="isolate" opacity=".2"/><polygon points="61.91 131.34 61.91 124.31 72.06 118.44 72.06 125.48 61.91 131.34" fill="#94e03e"/><polygon points="51.75 125.48 51.75 118.44 61.91 124.31 61.91 131.34 51.75 125.48" fill="#94e03e"/><polygon points="51.75 125.48 51.75 118.44 61.91 124.31 61.91 131.34 51.75 125.48" isolation="isolate" opacity=".2"/><polygon points="72.06 118.44 61.91 112.58 51.75 118.44 61.91 124.31 72.06 118.44" fill="#94e03e"/><polygon points="72.06 118.44 61.91 112.58 51.75 118.44 61.91 124.31 72.06 118.44" isolation="isolate" opacity=".4"/><polygon points="61.91 121.96 61.91 89.13 68 118.44 61.91 121.96" fill="#94e03e"/><polygon points="61.91 121.96 61.91 89.13 68 118.44 61.91 121.96" isolation="isolate" opacity=".1"/><polygon points="55.74 118.44 61.91 89.13 61.91 121.96 55.74 118.44" fill="#94e03e"/><polygon points="55.74 118.44 61.91 89.13 61.91 121.96 55.74 118.44" isolation="isolate" opacity=".25"/></g><path d="M324.11,357.49c-.08,0-.16-.02-.23-.05-.13-.07-13.58-6.82-34.26-7.77s-30.54,3-30.64,3c-.26.1-.56-.03-.66-.29-.05-.12-.05-.25,0-.37l30.41-75.16-71.1-8.29c-.28-.03-.48-.29-.44-.57,0-.05.02-.09.03-.13l11.27-27.88-143.86-17.08c-.27-.02-.47-.26-.44-.53,0,0,0-.02,0-.03.03-.28.28-.48.56-.45l144.53,17.19c.16.02.29.11.37.25.07.14.07.31,0,.45l-11.28,27.89,71.1,8.29c.16.02.3.11.38.24.07.15.07.31,0,.46l-30.24,74.71c3.09-1,12.74-3.5,30-2.71,20.91.95,34.54,7.8,34.68,7.87.25.12.35.42.22.67,0,0,0,0,0,0-.08.16-.23.26-.4.28Z" fill="#455a64"/></g></g><g id="freepik--Locators--inject-175"><g id="freepik--Pin--inject-175"><path d="M44.4,44.16v-3c.05-3.85.69-7.66,1.9-11.31h0c3.09-9.55,9.6-18.69,17.13-23,4.79-2.77,9.16-3.11,12.51-1.45l-6.59-3.79C67.73.54,65.82-.02,63.87,0c-.31,0-.61.01-.92.05-.32,0-.64.06-1,.11-.34.04-.67.1-1,.18-.34.07-.67.16-1,.27-.71.21-1.4.46-2.07.76-.35.15-.7.33-1.06.5s-.72.38-1.07.58c-10.45,6.04-18.96,21.4-18.96,34.4v3c0,12.93,17.39,27,17.39,27l7,4c-.12-.08-.24-.17-.35-.27-5.15-4.91-16.43-16.47-16.43-26.42ZM65.16,16.97c.06.33.1.66.12,1v.35c.01.2.01.39,0,.59,0,6.06-4.25,13.44-9.51,16.47l-.57.31c-.19.1-.38.18-.56.26l-.55.23h-.06c.82,4.64,4.68,6.26,9.36,3.58,5.25-3,9.5-10.42,9.5-16.48.04-5.37-3.31-7.92-7.73-6.31Z" fill="#94e03e"/><path d="M44.4,44.16v-3c.05-3.85.69-7.66,1.9-11.31h0c3.09-9.55,9.6-18.69,17.13-23,4.79-2.77,9.16-3.11,12.51-1.45l-6.59-3.79C67.73.54,65.82-.02,63.87,0c-.31,0-.61.01-.92.05-.32,0-.64.06-1,.11-.34.04-.67.1-1,.18-.34.07-.67.16-1,.27-.71.21-1.4.46-2.07.76-.35.15-.7.33-1.06.5s-.72.38-1.07.58c-10.45,6.04-18.96,21.4-18.96,34.4v3c0,12.93,17.39,27,17.39,27l7,4c-.12-.08-.24-.17-.35-.27-5.15-4.91-16.43-16.47-16.43-26.42Z" isolation="isolate" opacity=".3"/><path d="M65.16,16.97c.06.33.1.66.12,1v.35c.01.2.01.39,0,.59,0,6.06-4.25,13.44-9.51,16.47l-.57.31c-.19.1-.38.18-.56.26l-.55.23h-.06c.82,4.64,4.68,6.26,9.36,3.58,5.25-3,9.5-10.42,9.5-16.48.04-5.37-3.31-7.92-7.73-6.31Z" isolation="isolate" opacity=".5"/><path d="M82.44,19.25c0-12.93-8.51-18.5-19-12.43s-19,21.46-19,34.39v3c0,10,11.28,21.51,16.47,26.3,1.05.94,2.67.86,3.62-.19.15-.17.28-.36.38-.57,4.48-9.17,17.53-36.8,17.53-47.51v-2.99ZM63.44,39.76c-5.25,3-9.51.58-9.51-5.49s4.24-13.42,9.49-16.42,9.51-.58,9.51,5.49-4.26,13.39-9.51,16.42h.02Z" fill="#94e03e"/><path d="M82.44,19.25c0-12.93-8.51-18.5-19-12.43s-19,21.46-19,34.39v3c0,10,11.28,21.51,16.47,26.3,1.05.94,2.67.86,3.62-.19.15-.17.28-.36.38-.57,4.48-9.17,17.53-36.8,17.53-47.51v-2.99ZM63.44,39.76c-5.25,3-9.51.58-9.51-5.49s4.24-13.42,9.49-16.42,9.51-.58,9.51,5.49-4.26,13.39-9.51,16.42h.02Z" fill="#94e03e"/></g><g id="freepik--pin--inject-175"><path d="M207.94,125.5v-1c.02-1.27.23-2.52.63-3.72h0c.94-3.1,2.93-5.78,5.63-7.57,1.2-.85,2.75-1.03,4.11-.48l-2.17-1.25c-.53-.35-1.15-.53-1.79-.52h-.66c-.11.01-.22.03-.33.06l-.32.08c-.23.07-.46.16-.68.26l-.35.16-.36.19c-3.45,2-6.25,7-6.25,11.3v1c0,4.25,5.72,8.87,5.72,8.87l2.31,1.31-.11-.09c-1.67-1.54-5.38-5.33-5.38-8.6ZM214.77,116.56c0,.11,0,.22,0,.33v.11c0,.07,0,.13,0,.2-.12,2.2-1.28,4.21-3.13,5.41l-.18.1-.19.09-.18.07h0c.26,1.52,1.53,2.05,3.07,1.17,1.84-1.2,3-3.21,3.12-5.41.04-1.78-1.06-2.6-2.51-2.07h0Z" fill="#94e03e"/><path d="M207.94,125.5v-1c.02-1.27.23-2.52.63-3.72h0c.94-3.1,2.93-5.78,5.63-7.57,1.2-.85,2.75-1.03,4.11-.48l-2.17-1.25c-.53-.35-1.15-.53-1.79-.52h-.66c-.11.01-.22.03-.33.06l-.32.08c-.23.07-.46.16-.68.26l-.35.16-.36.19c-3.45,2-6.25,7-6.25,11.3v1c0,4.25,5.72,8.87,5.72,8.87l2.31,1.31-.11-.09c-1.67-1.54-5.38-5.33-5.38-8.6Z" fill="#fff" isolation="isolate" opacity=".6"/><path d="M214.74,116.56c0,.11,0,.22,0,.33v.31c-.12,2.2-1.28,4.21-3.12,5.41l-.19.1-.18.09-.19.07h0c.27,1.52,1.54,2.05,3.07,1.17,1.84-1.2,3-3.21,3.12-5.41.04-1.78-1.05-2.6-2.51-2.07Z" fill="#fff" isolation="isolate" opacity=".6"/><path d="M220.45,117.31c0-4.25-2.8-6.08-6.25-4.09s-6.2,7.06-6.2,11.31v1c0,3.27,3.7,7.06,5.41,8.64.34.32.87.3,1.19-.04.06-.06.11-.13.14-.21,1.47-3,5.76-12.09,5.76-15.61l-.05-1ZM214.2,124.05c-1.73,1-3.13.19-3.13-1.8.12-2.2,1.29-4.2,3.13-5.4,1.72-1,3.12-.19,3.12,1.81-.13,2.19-1.28,4.19-3.12,5.39h0Z" fill="#94e03e"/><path d="M220.45,117.31c0-4.25-2.8-6.08-6.25-4.09s-6.2,7.06-6.2,11.31v1c0,3.27,3.7,7.06,5.41,8.64.34.32.87.3,1.19-.04.06-.06.11-.13.14-.21,1.47-3,5.76-12.09,5.76-15.61l-.05-1ZM214.2,124.05c-1.73,1-3.13.19-3.13-1.8.12-2.2,1.29-4.2,3.13-5.4,1.72-1,3.12-.19,3.12,1.81-.13,2.19-1.28,4.19-3.12,5.39h0Z" fill="#94e03e"/><g opacity=".8"><path d="M220.45,117.31c0-4.25-2.8-6.08-6.25-4.09s-6.2,7.06-6.2,11.31v1c0,3.27,3.7,7.06,5.41,8.64.34.32.87.3,1.19-.04.06-.06.11-.13.14-.21,1.47-3,5.76-12.09,5.76-15.61l-.05-1ZM214.2,124.05c-1.73,1-3.13.19-3.13-1.8.12-2.2,1.29-4.2,3.13-5.4,1.72-1,3.12-.19,3.12,1.81-.13,2.19-1.28,4.19-3.12,5.39h0Z" fill="#fff"/></g></g><g id="freepik--pin--inject-175-2"><path d="M324.41,190.85v-1c.02-1.27.23-2.52.63-3.72h0c.94-3.1,2.93-5.78,5.63-7.57,1.2-.85,2.75-1.03,4.11-.48l-2.17-1.23c-.54-.35-1.16-.53-1.8-.52h-.62l-.32.06-.33.08c-.23.07-.46.16-.68.26l-.34.16-.36.19c-3.45,2-6.25,7.05-6.25,11.3v1c0,4.25,5.72,8.87,5.72,8.87l2.31,1.31-.11-.09c-1.71-1.62-5.42-5.4-5.42-8.62ZM331.24,181.91c0,.11,0,.22,0,.33v.11c0,.07,0,.13,0,.2-.12,2.2-1.28,4.21-3.13,5.41l-.18.1-.19.09-.18.07h0c.27,1.52,1.54,2,3.08,1.17,1.84-1.2,3-3.21,3.12-5.41.03-1.81-1.07-2.65-2.52-2.13v.06Z" fill="#94e03e"/><path d="M324.41,190.85v-1c.02-1.27.23-2.52.63-3.72h0c.94-3.1,2.93-5.78,5.63-7.57,1.2-.85,2.75-1.03,4.11-.48l-2.17-1.23c-.54-.35-1.16-.53-1.8-.52h-.62l-.32.06-.33.08c-.23.07-.46.16-.68.26l-.34.16-.36.19c-3.45,2-6.25,7.05-6.25,11.3v1c0,4.25,5.72,8.87,5.72,8.87l2.31,1.31-.11-.09c-1.71-1.62-5.42-5.4-5.42-8.62Z" fill="#fff" isolation="isolate" opacity=".6"/><path d="M331.21,181.85c0,.11,0,.22,0,.33v.31c-.12,2.2-1.28,4.21-3.12,5.41l-.19.1-.18.09-.19.07h0c.27,1.52,1.54,2,3.07,1.17,1.84-1.2,3-3.21,3.12-5.41.04-1.75-1.06-2.59-2.51-2.07Z" fill="#fff" isolation="isolate" opacity=".6"/><path d="M336.92,182.61c0-4.25-2.8-6.08-6.25-4.09s-6.26,7.06-6.26,11.31v1c0,3.27,3.71,7.06,5.42,8.64.34.32.87.3,1.19-.04.06-.06.11-.13.14-.21,1.47-3,5.76-12.09,5.76-15.61v-1ZM330.67,189.35c-1.73,1-3.13.19-3.13-1.8.12-2.2,1.28-4.22,3.13-5.42,1.72-1,3.12-.19,3.12,1.81-.12,2.2-1.28,4.21-3.12,5.41Z" fill="#94e03e"/><path d="M336.92,182.61c0-4.25-2.8-6.08-6.25-4.09s-6.26,7.06-6.26,11.31v1c0,3.27,3.71,7.06,5.42,8.64.34.32.87.3,1.19-.04.06-.06.11-.13.14-.21,1.47-3,5.76-12.09,5.76-15.61v-1ZM330.67,189.35c-1.73,1-3.13.19-3.13-1.8.12-2.2,1.28-4.22,3.13-5.42,1.72-1,3.12-.19,3.12,1.81-.12,2.2-1.28,4.21-3.12,5.41Z" fill="#94e03e"/><g opacity=".8"><path d="M336.92,182.61c0-4.25-2.8-6.08-6.25-4.09s-6.26,7.06-6.26,11.31v1c0,3.27,3.71,7.06,5.42,8.64.34.32.87.3,1.19-.04.06-.06.11-.13.14-.21,1.47-3,5.76-12.09,5.76-15.61v-1ZM330.67,189.35c-1.73,1-3.13.19-3.13-1.8.12-2.2,1.28-4.22,3.13-5.42,1.72-1,3.12-.19,3.12,1.81-.12,2.2-1.28,4.21-3.12,5.41Z" fill="#fff"/></g></g></g><g id="freepik--Arrow--inject-175"><g id="freepik--arrow--inject-175"><path d="M441.89,411.27h0v-8.77l-65.53-15.07v8.76h0c.02.27.13.52.3.72l25.51,35.78c.63.88,1.31.73,1.51-.33l3.23-16.79c.27-1.09,1.2-1.89,2.32-2l31.82-2c.56-.11.83-.19.84-.3Z" fill="#94e03e"/><path d="M441.89,411.27h0v-8.77l-65.53-15.07v8.76h0c.02.27.13.52.3.72l25.51,35.78c.63.88,1.31.73,1.51-.33l3.23-16.79c.27-1.09,1.2-1.89,2.32-2l31.82-2c.56-.11.83-.19.84-.3Z" isolation="isolate" opacity=".3"/><path d="M402.74,433.2c.43.2.81-.08.95-.83l3.23-16.79c.09-.4.27-.77.53-1.08v-12.33l-4.71,6.9v24.13Z" isolation="isolate" opacity=".2"/><path d="M403.69,423.59l3.23-16.74c.27-1.09,1.2-1.89,2.32-2l31.83-2c1.07-.07,1.09-.33,0-.58l-63.68-15.14c-1.05-.25-1.39.26-.76,1.14l25.51,35.78c.67.8,1.35.6,1.55-.46Z" fill="#94e03e"/></g></g></g></svg>